<?xml version="1.0" encoding="utf-8"?>
<!-- Generator: Adobe Illustrator 17.1.0, SVG Export Plug-In . SVG Version: 6.00 Build 0)  -->
<!DOCTYPE svg PUBLIC "-//W3C//DTD SVG 1.1//EN" "http://www.w3.org/Graphics/SVG/1.1/DTD/svg11.dtd">
<svg version="1.1" id="Layer_1" xmlns="http://www.w3.org/2000/svg" xmlns:xlink="http://www.w3.org/1999/xlink" x="0px" y="0px"
	 viewBox="0 0 963 977" enable-background="new 0 0 963 977" xml:space="preserve">
<g>
	<path fill="#FFFFFF" d="M283.7,282.3c-15.6-15.5-30.9-30.6-46.2-45.7c0.3-0.3,0.5-0.5,0.8-0.8c15.2,15.2,30.4,30.4,46,46
		c57.2-55.1,125.4-84.8,205.2-88.3c3-20.8,6-41.6,9-62.4c0.3,0,0.7,0,1,0c2.1,14.4,4.1,28.7,6.2,43.1c0.8,5.3,1.5,10.5,2.2,15.8
		c0.3,2.5,1.1,3.7,4,3.9c77.8,3.8,144.6,33,200.7,87c0.2,0.2,0.5,0.4,1.7,1.2c15.2-15.2,30.5-30.6,45.8-46c0.5,0.5,0.9,0.9,1.4,1.4
		c-15.2,15.2-30.4,30.5-46,46c55.2,57.2,84.7,125.5,88.3,205.3c21,3,41.9,6,62.8,9.1c0,0.3,0,0.6,0,0.9c-20.8,3-41.7,6-62.9,9.1
		c-1.5,38.6-9.4,75.5-24.6,110.7c-15.2,35.3-36.4,66.5-63.7,94.5c15.4,15.4,30.7,30.7,45.9,46.1c-0.5,0.5-1,1.1-1.6,1.6
		c-15.2-15.2-30.5-30.4-46-46c-27.7,27.2-59,48.5-94.4,63.7c-35.2,15.2-72.1,23.2-110.8,24.6c-3,21-6,41.7-9,62.5
		c-0.3,0-0.7,0.1-1,0.1c-3-20.7-6-41.4-9-62.5c-79.4-3.5-147.7-32.9-205.7-88.8c-15.3,15.4-30.5,30.8-45.7,46.2
		c-0.5-0.5-0.9-0.9-1.4-1.4c15.2-15.2,30.3-30.4,45.9-46c-55.1-57.2-84.7-125.4-88.3-205.3c-21-3-42.1-6.1-63.1-9.1
		c0-0.3,0-0.5-0.1-0.8c20.9-3,41.9-6,63.1-9.1C197.8,409.2,227.3,340.9,283.7,282.3z M486.6,214.5c-41.7,1.8-80.6,12-117.1,31
		c-55.4,28.8-97.2,71.3-125.1,127.1c-17.7,35.4-27.3,73-28.9,113.1c16.1-2.3,31.5-4.6,46.8-6.8c0-0.3-0.1-0.7-0.1-1
		c-1.8-0.1-3.5-0.3-5.3-0.4c12.9-0.6,25.8-1.7,38.5-3.2c7.6-0.9,7.6-1.2,7.8-9.4c-14.2-2.8-28.5-5.6-42.8-8.4c0-0.3,0.1-0.5,0.1-0.8
		c14.4,2.3,28.8,4.6,43.5,6.9c1.1-5,2.1-9.7,3.1-14.7c-12.4-3.6-24.4-7-36.4-10.5c0.1-0.3,0.2-0.6,0.2-0.9c12.2,3,24.3,6.1,36.8,9.2
		c1.5-4.9,2.9-9.5,4.5-14.3c-13.1-5-25.8-9.9-38.5-14.8c0.1-0.3,0.2-0.5,0.3-0.8c13,4.5,25.9,8.9,39.1,13.5c2-4.9,3.8-9.3,5.7-13.9
		c-11.1-5.4-21.8-10.7-32.6-15.9c0.1-0.3,0.3-0.6,0.4-0.9c11,4.9,21.9,9.7,33.2,14.7c2.4-4.6,4.6-8.8,6.9-13.3
		c-10.4-6.3-20.6-12.4-30.7-18.5c0.2-0.3,0.3-0.6,0.5-0.9c10.4,5.7,20.8,11.5,31.3,17.4c2.8-4.3,5.4-8.4,8.1-12.6
		c-7.9-5.8-15.6-11.4-23.3-16.9c0.2-0.4,0.5-0.7,0.7-1.1c7.9,5.3,15.8,10.7,23.9,16.1c3.1-4.1,6-7.9,9.1-12
		c-7.1-6.2-14-12.1-20.8-18.1c0.3-0.3,0.6-0.7,0.9-1c7.1,5.7,14.2,11.5,21.5,17.4c2.2-2.6,4.3-4.9,6.4-7.2
		c-8.5-11.4-16.7-22.3-24.8-33.2c0.3-0.3,0.6-0.5,0.9-0.8c11,8.2,22,16.5,33.1,24.8c2.6-2.3,4.8-4.2,7.2-6.4
		c-7.8-9.7-15.4-19.1-23-28.5c0.3-0.2,0.5-0.4,0.8-0.6c7.9,9.1,15.9,18.3,24,27.6c4.1-3.2,7.9-6.1,11.8-9.2
		c-6.4-9.5-12.6-18.7-18.7-27.8c0.3-0.2,0.6-0.4,1-0.6c6.5,9,13.1,18,19.7,27.2c4.4-2.8,8.4-5.4,12.6-8.1c-5.6-10-11-19.7-16.4-29.5
		c0.3-0.2,0.7-0.4,1-0.6c5.8,9.6,11.6,19.3,17.4,29c4.7-2.6,8.9-4.8,13.2-7.1c-4-9.2-7.9-17.8-11.7-26.5c0.4-0.2,0.7-0.3,1.1-0.5
		c4.2,8.6,8.5,17.2,12.8,26.1c4.7-2,9.1-3.8,13.8-5.8c-3.9-11.4-7.7-22.5-11.5-33.6c0.3-0.1,0.7-0.2,1-0.3
		c4.2,11,8.4,21.9,12.7,33.1c5-1.6,9.5-3,14.3-4.5c-3.1-12.3-6-24.2-9-36.1c0.3-0.1,0.6-0.2,0.9-0.2c3.4,11.8,6.8,23.7,10.3,35.8
		c5.2-1.2,9.8-2.2,14.6-3.3c-2.3-14.6-4.5-28.7-6.8-42.8c0.3,0,0.5-0.1,0.8-0.1c2.8,14.1,5.5,28.3,8.3,42.3c8.3-0.4,8.4-0.4,9.2-7.3
		c1.5-12.4,2.8-24.8,4.1-37.2c-0.2,0-0.5-0.1-0.7-0.1c0.3,1.4,0.6,2.8,0.8,4.2c0.2,0,0.4,0,0.6,0C482,246.4,484.2,230.8,486.6,214.5
		z M215.9,510.7c4.1,148.9,131.9,268.7,270.6,270.6c-2.3-15.7-4.5-31.4-6.7-47.1c-0.2,0-0.5,0-0.7,0c-0.2,1.5-0.4,3-0.6,4.4
		c-0.7-12.6-1.9-24.9-3.4-37.2c-0.9-7.5-1.1-7.5-9.3-7.3c-2.7,14-5.5,28-8.2,42.1c-0.3,0-0.5-0.1-0.8-0.1
		c2.2-14.2,4.5-28.4,6.7-42.8c-5.2-1.1-9.8-2.1-14.6-3.1c-3.5,12.3-6.9,24.1-10.3,35.9c-0.3-0.1-0.6-0.2-0.9-0.2c3-12,5.9-24,9-36.3
		c-4.9-1.5-9.4-2.9-14.3-4.5c-4.3,11.3-8.5,22.2-12.8,33.2c-0.3-0.1-0.7-0.2-1-0.3c3.8-11.2,7.7-22.4,11.6-33.8
		c-4.9-2-9.3-3.8-13.9-5.6c-4.7,9.7-9.2,18.9-13.7,28.1c-0.4-0.2-0.7-0.3-1.1-0.5c4.2-9.5,8.4-18.9,12.7-28.7
		c-4.5-2.4-8.7-4.6-13.3-6.9c-5.6,9.2-11,18.2-16.4,27.2c-0.3-0.2-0.7-0.4-1-0.6c5.1-9.2,10.2-18.4,15.3-27.8
		c-4.4-2.8-8.4-5.3-12.7-8c-7.7,10.6-15.1,20.9-22.6,31.2c-0.3-0.2-0.6-0.4-0.9-0.6c7.2-10.6,14.3-21.2,21.6-32
		c-4.3-3.3-8.1-6.2-11.9-9.1c-6.9,7.9-13.4,15.4-20,23c-0.3-0.3-0.6-0.5-0.9-0.8c6.3-7.8,12.7-15.7,19.2-23.7
		c-2.5-2.2-4.8-4.2-7.2-6.4c-11.5,8.6-22.7,17-33.9,25.4c-0.2-0.2-0.4-0.4-0.6-0.7c8.4-11.3,16.8-22.5,25.4-34
		c-2.2-2.5-4.2-4.7-6.4-7.2c-9,7.3-17.7,14.3-26.4,21.4c-0.2-0.3-0.5-0.6-0.7-0.9c8.5-7.4,17-14.8,25.6-22.2
		c-3.3-4.3-6.2-8-9.2-11.8c-9.2,6.2-18,12.2-26.8,18.1c-0.2-0.3-0.4-0.7-0.7-1c8.7-6.3,17.4-12.6,26.2-19c-2.9-4.5-5.5-8.4-8.1-12.6
		c-11.4,6.3-22.3,12.4-33.3,18.5c-0.2-0.3-0.3-0.6-0.5-0.9c10.9-6.5,21.8-13.1,32.7-19.6c-2.5-4.7-4.8-8.9-7.1-13.2
		c-10.8,4.8-21,9.3-31.2,13.9c-0.2-0.3-0.3-0.7-0.5-1c10.2-5,20.4-10,30.8-15.1c-2-4.8-3.9-9.1-5.8-13.8c-11.7,4-23,7.9-34.2,11.8
		c-0.1-0.3-0.2-0.7-0.3-1c11.1-4.3,22.3-8.5,33.8-13c-1.6-5-3-9.6-4.5-14.3c-14,3.5-27.3,6.8-40.7,10.1c-0.1-0.3-0.1-0.5-0.2-0.8
		c13.4-3.8,26.7-7.7,40.3-11.6c-1.2-5.2-2.2-9.8-3.3-14.6c-13.4,2.1-26.3,4.1-39.2,6.2c0-0.3-0.1-0.6-0.1-0.9
		c13-2.5,26-5.1,38.9-7.6c-0.9-8.4-0.9-8.7-8.4-9.5c-13.1-1.4-26.1-2.5-39.2-3.7c0,0.3-0.1,0.6-0.1,0.9c2-0.2,4-0.5,6-0.7
		c0-0.4,0-0.7,0-1.1C246.6,515.1,231.4,512.9,215.9,510.7z M580.9,721.6c-0.3,0.1-0.6,0.3-0.9,0.4c-4.7-12.3-9.5-24.7-14.2-37
		c-5,1.6-9.4,3-14.2,4.6c3.2,12.9,6.3,25.4,9.4,38c-0.3,0.1-0.6,0.1-0.9,0.2c-3.6-12.4-7.1-24.8-10.8-37.6c-5,1.1-9.6,2.1-14.6,3.2
		c2.1,13.5,4.2,26.7,6.3,39.9c-0.3,0-0.6,0.1-0.9,0.1c-2.6-13.1-5.1-26.3-7.7-39.7c-3.1,0.5-5.7,1-9.3,1.6
		c-1.3,16.3-2.5,32.5-3.7,48.6c0.3,0,0.7,0.1,1,0.1c-0.3-2.8-0.7-5.7-1-8.5c-0.4,0-0.7,0-1.1,0c-2.2,15.3-4.4,30.6-6.5,46
		c143.2-3.3,267.2-125.7,270.7-270.7c-15.4,2.2-30.8,4.4-46.1,6.7c0,0.4,0.1,0.8,0.1,1.2c2.1,0.2,4.2,0.4,6.3,0.6
		c-13.7,0.4-27.2,1.5-40.7,3.1c-7.2,0.8-7.7,1.9-6.6,9.4c12.6,2.5,25.3,4.9,38,7.4c-0.1,0.3-0.1,0.6-0.2,0.9
		c-12.9-2-25.8-4.1-39-6.2c-1.1,5-2.2,9.7-3.3,14.6c12.6,3.6,24.8,7.1,37.1,10.6c-0.1,0.3-0.2,0.6-0.2,0.9
		c-12.3-3.1-24.7-6.2-37.4-9.3c-1.5,4.9-3,9.5-4.5,14.3c12.4,4.8,24.4,9.4,36.3,14c-0.1,0.3-0.2,0.6-0.3,0.9
		c-12.2-4.2-24.4-8.4-36.8-12.7c-2,4.8-3.8,9.2-5.7,13.9c11.9,5.8,23.3,11.4,34.7,16.9c-0.1,0.3-0.3,0.6-0.4,0.9
		c-11.8-5.2-23.5-10.4-35.4-15.7c-2.5,4.7-4.6,8.8-6.9,13.3c9.9,6,19.6,11.8,29.3,17.6c-0.2,0.3-0.4,0.6-0.6,1
		c-9.9-5.5-19.8-11-29.9-16.6c-2.9,4.6-5.4,8.6-8,12.7c9.5,6.9,18.5,13.4,27.5,19.9c-0.2,0.3-0.4,0.6-0.7,0.9
		c-9.3-6.3-18.6-12.6-28.2-19.1c-3.1,4.1-6,7.8-9.2,11.9c7.9,6.9,15.6,13.5,23.3,20.2c-0.3,0.3-0.6,0.6-0.8,0.9
		c-8-6.4-15.9-12.9-24-19.5c-2.3,2.6-4.3,4.8-6.4,7.2c8.6,11.6,17.1,22.9,25.6,34.2c-0.2,0.2-0.5,0.4-0.7,0.6
		c-11.3-8.5-22.6-16.9-34.1-25.6c-2.5,2.3-4.7,4.3-7.1,6.5c7.5,9.2,14.5,17.9,21.6,26.6c-0.3,0.2-0.6,0.5-0.9,0.7
		c-7.5-8.6-15-17.2-22.5-25.9c-4.2,3.3-8,6.3-11.8,9.3c6.3,9.3,12.3,18.1,18.2,27c-0.3,0.2-0.7,0.4-1,0.6
		c-6.3-8.7-12.7-17.4-19.2-26.4c-4.3,2.8-8.3,5.4-12.6,8.1c5.4,9.8,10.7,19.3,15.9,28.7c-0.3,0.2-0.7,0.4-1,0.6
		c-5.6-9.4-11.2-18.7-16.9-28.2c-4.7,2.5-8.9,4.7-13.2,7c4.2,9.4,8.2,18.4,12.2,27.5c-0.4,0.2-0.7,0.3-1.1,0.5
		c-4.4-8.9-8.7-17.8-13.2-27c-4.8,2-9.2,3.8-13.8,5.8C572.3,696.9,576.6,709.2,580.9,721.6z M633,305.9c0.3,0.3,0.5,0.5,0.8,0.8
		c-6.7,9.9-13.3,19.8-20.1,29.8c4.1,3.2,7.9,6.1,11.9,9.1c7.3-8.4,14.4-16.6,21.5-24.8c0.3,0.3,0.6,0.5,0.9,0.8
		c-6.8,8.4-13.7,16.9-20.7,25.5c2.5,2.3,4.7,4.2,7.2,6.5c12.4-9.3,24.6-18.5,36.9-27.7c-9.3,12.3-18.4,24.5-27.7,36.9
		c2.3,2.6,4.4,4.8,6.5,7.2c8.7-7,16.8-13.7,25-20.3c0.2,0.3,0.5,0.6,0.7,0.9c-8,7-16.1,14-24.3,21.2c3.2,4.1,6.1,7.9,9.2,11.8
		c10-6.8,19.7-13.3,29.4-19.9c0.2,0.3,0.4,0.6,0.6,0.9c-9.5,6.9-19,13.8-28.7,20.9c2.9,4.5,5.5,8.5,8.1,12.6
		c11.8-6.5,23.2-12.9,34.6-19.2c0.2,0.3,0.3,0.6,0.5,0.8c-11.3,6.8-22.6,13.5-34.1,20.4c2.5,4.7,4.8,8.9,7.1,13.2
		c9.9-4.4,19.4-8.6,28.9-12.8c0.2,0.3,0.3,0.7,0.5,1c-9.4,4.6-18.7,9.2-28.4,13.9c2,4.8,3.8,9.1,5.8,13.8c11.6-4,22.7-7.8,33.9-11.6
		c0.1,0.3,0.2,0.7,0.3,1c-11.1,4.3-22.2,8.5-33.5,12.9c1.6,5,3.1,9.6,4.6,14.3c13.7-3.4,27-6.7,40.3-10.1c0.1,0.3,0.1,0.5,0.2,0.8
		c-13.3,3.8-26.7,7.7-40.1,11.5c1.2,5.3,2.3,9.9,3.4,14.6c13.1-2.1,25.6-4,38.1-6c0,0.3,0.1,0.6,0.1,0.9c-12.5,2.4-25,4.9-37.4,7.3
		c-0.3,8.1-0.3,8.4,6.8,9.3c13,1.6,26,2.8,39,4.1c0.1-0.3,0.1-0.5,0.2-0.8c-1.9,0.2-3.8,0.4-5.8,0.5c0,0.3,0,0.6-0.1,0.9
		c15.7,2.3,31.3,4.5,47.1,6.8C777.8,334,647.6,216.8,511.7,215.1c4.1,28.8,8.2,57.5,12.3,86.3c3,0.4,5.5,0.8,8.3,1.2
		c2.7-13.8,5.3-27,7.8-40.3c0.3,0,0.6,0.1,0.8,0.1c-2.1,13.5-4.2,27-6.3,40.6c5.3,1.1,9.8,2,14.6,3.1c3.7-12.8,7.2-25.1,10.8-37.5
		c0.3,0.1,0.6,0.1,0.9,0.2c-3.1,12.6-6.3,25.3-9.4,38c5.1,1.6,9.4,3,14.3,4.5c4.8-12.4,9.5-24.6,14.2-36.8c0.3,0.1,0.6,0.2,0.9,0.3
		c-4.3,12.3-8.5,24.7-12.9,37.3c4.8,2,9.2,3.8,13.9,5.7c5.9-12,11.6-23.7,17.3-35.4c0.3,0.1,0.6,0.3,0.9,0.4
		c-5.3,11.9-10.6,23.8-16,36c4.5,2.4,8.7,4.6,13.3,7c7-11.7,13.9-23.2,20.8-34.6c0.3,0.2,0.5,0.3,0.8,0.5
		c-6.5,11.7-12.9,23.4-19.6,35.3c4.4,2.8,8.3,5.3,12.6,8.1C619,325.2,626,315.5,633,305.9z M471.7,525.9c-6.3-7.1-10.4-14.3-11-22.9
		c-0.3-3.9-1.7-4.9-5.5-4.9c-102.3,0.1-204.6,0.1-308,0.1c2.3,0.7,3.5,1.2,4.7,1.4c16.6,2.4,33.3,4.7,49.9,7.1
		c40.9,5.8,81.7,11.7,122.6,17.5c42.3,6.1,84.7,12.2,127,18.1c1.4,0.2,3.4-0.3,4.4-1.3C461.2,536.3,466.2,531.2,471.7,525.9z
		 M499.1,849.8c0.2,0,0.4,0,0.6,0.1c1.7-11.7,3.4-23.3,5.1-35c6.1-43,12.3-86,18.4-129c6.7-46.8,13.4-93.6,20-140.4
		c0.2-1.2,0.1-2.9-0.6-3.6c-5.2-5.5-10.6-10.8-15.5-15.7c-4.9,2.9-9,5.9-13.6,7.8c-4.5,1.8-9.5,2.6-14.4,3.8
		C499.1,641.8,499.1,745.8,499.1,849.8z M498.6,459.3c0-104,0-207.5,0-310.9c-3.3,18.9-6,37.8-8.7,56.7
		c-6.2,43.5-12.4,87-18.6,130.5c-5.4,38.1-10.9,76.1-16.3,114.2c-0.2,1.6,0,3.9,1,5c4.9,5.4,10.1,10.5,15.4,16
		C479.3,463.5,488.1,459.7,498.6,459.3z M538.2,497.8c103.5,0,206.7,0,309.9,0c-0.5-0.7-1.1-0.9-1.7-1
		c-38.1-5.4-76.1-10.8-114.2-16.2c-61.6-8.8-123.2-17.7-184.8-26.5c-1.4-0.2-3.4-0.4-4.3,0.4c-5.7,5.3-11.1,10.8-16.5,16.2
		C534.6,480.5,536.2,484.3,538.2,497.8z M318.9,470.9c35.2-5,69.9-10,105.4-15.1c-20.4-27.2-40.1-53.5-60.1-80.2
		C339.7,403.1,324.7,434.4,318.9,470.9z M376.6,363.2c26.8,20.1,53.1,39.9,80.2,60.1c5.1-35.7,10-70.3,15-105.4
		C435.2,323.8,403.9,338.8,376.6,363.2z M621.5,633.1c-26.7-20.1-53.1-39.8-80.2-60.2c-5.1,35.7-10,70.3-15,105.4
		C563,672.5,594.2,657.6,621.5,633.1z M634,375.7c-20.2,26.9-39.9,53.2-60.1,80.2c35.6,5.1,70.2,10,105.4,15
		C673.3,434.3,658.4,403.1,634,375.7z M456.7,573c-27.2,20.4-53.5,40.2-80.2,60.2c27.5,24.4,58.7,39.6,95.2,45.2
		C466.8,643,461.8,608.5,456.7,573z M364.1,620.7c20.2-26.9,39.9-53.2,60.1-80.2c-35.5-5.1-70.2-10-105.4-15
		C324.7,562,339.6,593.2,364.1,620.7z M621.5,363.2c-27.4-24.5-58.6-39.5-95.2-45.3c5,35.4,10,70,15.1,105.4
		C568.5,403,594.8,383.3,621.5,363.2z M634,620.7c24.4-27.6,39.5-58.7,45.2-95.3c-35.5,5.1-69.9,10-105.3,15.1
		C594.2,567.6,613.9,593.9,634,620.7z M546.8,544.4c37.7,37.7,75.1,75.1,111.7,111.7c-4.2-5.6-9.1-12.2-14.1-18.8
		c-23.2-30.9-46.3-61.8-69.5-92.7c-1.1-1.5-2.9-3.6-4.3-3.5C562.6,541.9,554.6,543.3,546.8,544.4z M452.9,546.3
		c-37.6,37.5-75,74.8-111.5,111.3c9.2-6.9,19.4-14.6,29.6-22.2c27.2-20.4,54.4-40.7,81.5-61.2c1.6-1.2,3.5-3.6,3.4-5.2
		C455.3,561.1,453.9,553.4,452.9,546.3z M545.1,449.6c37.1-37,74.2-74.1,110.6-110.4c1.1-0.2,0.9-0.2,0.8-0.2
		c-37.6,28.1-75.1,56.3-112.6,84.5c-1.1,0.8-2,2.8-1.9,4.1C542.9,435.2,544.1,442.7,545.1,449.6z M340.7,341.4
		c0.4,0.7,0.8,1.5,1.3,2.2c27.4,36.5,54.7,73,82.1,109.5c0.7,1,2,2.4,2.9,2.3c8.2-1,16.3-2.3,24.3-3.4
		C414.3,414.9,377.6,378.1,340.7,341.4z M464.5,498.4c0.1,19.2,15.5,34.5,34.8,34.4c19.1-0.1,34.6-15.7,34.5-34.8
		c-0.1-19.1-15.7-34.4-34.9-34.4C479.7,463.7,464.4,479.2,464.5,498.4z M226.1,371.3c-14.8,32.2-23.8,65.3-26.7,100.2
		c4.3,0.4,7.8,0.8,11.2,1.1c0.5,0,0.9-0.2,1.7-0.4c3-33.1,11.6-64.9,25.5-95.3C233.9,374.9,230.3,373.2,226.1,371.3z M238.1,619.5
		c-14.1-30.6-22.5-62.2-25.6-95.7c-2.3,0.1-4.3,0.2-6.2,0.3c-2.1,0.2-4.2,0.6-6.8,0.9c3.1,35,12,68.1,26.8,100
		C230.2,623.1,233.8,621.4,238.1,619.5z M772,625c14.8-32.1,23.7-65.2,26.7-100.1c-4.7-0.5-8.6-0.8-13-1.3
		c-3.1,33.7-11.6,65.4-25.6,95.8c1.7,0.9,2.8,1.5,4,2.1C766.6,622.6,769,623.6,772,625z M473.6,784.9c-33.7-3.1-65.4-11.7-95.8-25.6
		c-2,4.3-3.7,8-5.5,11.9c32.2,14.8,65.2,23.7,100.1,26.7C472.8,793.4,473.2,789.5,473.6,784.9z M524.6,211.5
		c33.6,3.1,65.2,11.6,95.7,25.6c1.1-2.2,2-4.1,2.9-6c0.9-1.9,1.7-3.8,2.6-5.9c-32-14.7-65-23.7-100.1-26.7
		C525.3,203,525,207.1,524.6,211.5z M472.4,198.4c-35.3,3.1-68.3,12-100.2,26.8c2,4.3,3.8,8,5.2,10.8c16.2-5.5,31.5-11.6,47.4-15.8
		c15.8-4.2,32.2-6.6,48.7-9.8C473.2,207.1,472.8,203.2,472.4,198.4z M525.6,798c35.3-3.2,68.4-12,100.2-26.9
		c-2-4.2-3.7-7.9-5.1-10.8c-16.2,5.5-31.6,11.5-47.4,15.8c-15.8,4.2-32.1,6.6-48.7,9.9C524.9,789.4,525.3,793.3,525.6,798z
		 M772,371.3c-4.3,2-8,3.8-11.9,5.6c14.3,30.7,22.5,62.5,25.7,95.9c4.7-0.5,8.6-0.9,13-1.4C795.6,436.5,786.8,403.4,772,371.3z
		 M624.5,635.7c-0.8,0.7-1.6,1.3-2.3,1.9c-26.1,22.9-56.3,37.5-90.5,43.7c-6.8,1.2-7.3,2.1-6.3,9.4c40.4-5.8,75.5-22.5,105.9-50.3
		c-2.1-1.6-3.5-2.8-5-3.8C625.8,636.3,625.2,636.1,624.5,635.7z M306.4,523.6c5.9,41.3,22.5,76.4,50.4,107c1.9-2.6,3.4-4.6,5-6.8
		c-25.5-28.3-41.1-61.2-46.9-98.8C312.2,524.6,309.8,524.1,306.4,523.6z M631.6,356c-30.9-28.1-65.9-44.7-106.9-50.5
		c0.8,4.1-1.1,8.3,4.9,9.3c29.6,4.7,56.4,16.3,80.4,34.1c5,3.7,9.8,7.8,14.8,11.8c1.7-1.2,3.1-2.3,4.6-3.3
		C629.9,357,630.5,356.7,631.6,356z M691.7,472.4c-5.9-40.9-22.5-76.1-50.4-106.6c-1.9,2.6-3.4,4.5-4.9,6.6c0.9,1.1,1.6,2,2.3,2.9
		c22.8,26.2,37.6,56.4,43.3,90.7C683.1,472.1,686.5,472.4,691.7,472.4z M472.9,305.5c-40.7,5.8-75.8,22.5-106.1,50.2
		c1.7,1.3,2.7,2.1,3.7,2.9c0.9,0.7,1.9,1.3,2.9,2c1.1-0.9,2.1-1.7,3.1-2.6c25.8-22.4,55.5-37,89.2-42.9
		C471.8,314.2,473.9,312,472.9,305.5z M307.2,472.5c3.5-0.9,7.6,0.7,8.6-5.4c5-31.2,17.6-59.1,37-83.9c2.9-3.6,5.9-7.2,8.9-10.8
		c-1.8-2.2-3.3-4.2-5-6.2C331.1,391.6,305,447.8,307.2,472.5z M691.3,524c-8,0.3-8.1,0.3-9.2,6.8c-6,33.9-20.5,63.8-43,89.8
		c-0.9,1.1-1.8,2.3-2.7,3.5c1.7,2.2,3.2,4.1,4.7,6.1C664.7,609.5,689.1,557.7,691.3,524z M472.9,690.8c1.5-7.3-2-8.9-7.6-9.8
		c-27.7-4.7-52.8-15.8-75.5-32.3c-5.6-4.1-10.9-8.6-16.5-13c-2,1.5-4,3-6.5,4.9C397.2,668.4,432.4,685.1,472.9,690.8z M701.9,703.3
		c-12.5,10.5-24.7,20.7-37.1,31.1c2.4,3.3,4.8,6.6,7.7,10.7c13.2-11,25.9-21.7,38.5-32.3C707.4,709,704.6,706.1,701.9,703.3z
		 M263,664c-3.3,2.4-6.6,4.8-10.7,7.7c11,13.1,21.8,25.9,32.2,38.3c3.8-3.6,6.7-6.4,9.5-9.1C283.7,688.7,273.5,676.6,263,664z
		 M713.4,710.3c10.8-12.9,21.5-25.6,32.5-38.8c-4.4-3-7.8-5.4-10.9-7.5c-10.6,12.7-20.8,24.9-31.2,37.2
		C706.6,703.9,709.5,706.6,713.4,710.3z M711.5,284c-13.2-11-26-21.7-39.1-32.7c-3,4.3-5.4,7.7-7.5,10.8
		c12.6,10.6,24.9,20.9,37.2,31.2C704.9,290.5,707.7,287.7,711.5,284z M263,332.4c10.6-12.7,20.9-25,30.4-36.3
		c-2.7-3.3-5.2-6.5-8.4-10.4c-11.2,13.4-21.9,26.2-32.7,39.2C256.6,327.9,259.9,330.2,263,332.4z M325.8,745.1
		c3-4.4,5.4-7.8,7.5-10.8c-12.6-10.6-24.8-20.8-36.9-31c-2.7,2.7-5.6,5.7-9.2,9.4C299.9,723.4,312.6,734.1,325.8,745.1z
		 M325.7,251.2c-13.3,11.2-26,21.9-38.6,32.5c3.6,4,6.3,6.9,8.8,9.6c12.5-10.5,24.9-20.8,37.4-31.3
		C331.1,258.9,328.8,255.7,325.7,251.2z M745.9,324.8c-11-13.2-21.7-26-32.2-38.5c-3.8,3.6-6.7,6.5-9.5,9.1
		c10.2,12.2,20.4,24.4,30.9,36.9C738.2,330.2,741.5,327.9,745.9,324.8z"/>
	<path fill="#FFFFFF" d="M45.5,469.6c-9.4,1.2-16.7,4.6-21.8,11.9c-2.8,4-3.1,8.3-0.8,12.7c1.2,2.4,2.1,5.1-1.2,6.3
		c-3.4,1.3-5.2-1.5-5.4-4.2c-0.3-3.5-0.1-7.4,1.1-10.7c2.9-8.5,9.1-14.4,17.7-17.1c6.9-2.1,14.1-3,21.8-3.9
		c-13.1,18.1-13.7,38.1-10.9,59.6c16.7-20.1,27.3-44,45.8-61.6c-1.7,20.9-3.4,41.6-5.1,62.8c1.7-0.5,2.4-0.4,2.5-0.7
		c10.1-14,20.6-27.8,30.2-42.1c5-7.3,7.2-15.7,3.4-24.7c-0.6-1.3,1.1-3.6,1.7-5.4c2,0.7,5.3,1.1,5.6,2.3c1.1,3.7,1.8,7.9,1.1,11.6
		c-0.8,4.8-2.5,9.8-4.9,14.1c-12.5,22.8-29.2,42.4-46.7,61.4c-0.5-0.1-1-0.2-1.5-0.3c0.8-20,1.6-39.9,2.4-59.6
		c-13.2,19-26.7,38.4-40.3,57.9c-0.7-0.2-1.4-0.5-2.2-0.7C37.1,515.8,29.8,492.1,45.5,469.6z"/>
	<path fill="#FFFFFF" d="M491.5,32.7c-5.8,1.8-11.9,3-17.3,5.6c-7.7,3.8-9.7,12-6.1,19.6c0.8,1.7,0.8,3.9,0.6,5.9
		c0,0.5-2.8,1.5-3.3,1c-1.7-1.3-3.8-3-4.3-4.9c-2.7-9.2,1.9-20.3,11.1-25c4.6-2.4,10-3.4,15.1-4.6c4.3-1,8.8-1.4,13-2
		c6,18.7,11.9,37.2,17.9,55.6c0.5,0,1,0,1.5-0.1c1.4-5.8,2.6-11.6,4.3-17.3c2.8-9.6,5.5-19.2,9-28.5c2.9-7.4,8.4-12.4,17.1-12.3
		c1.5,0,3.4,0,4.3,0.9c1.5,1.5,2.3,3.8,3.4,5.7c-2,0.6-4.2,2.2-5.9,1.7c-9-2.4-12.1-1.8-15,7c-5.6,17.2-10.1,34.8-15,52.2
		c-1.1,3.8-1.8,7.7-3,12.6c-10.6-20.3-16.2-41.2-23.3-62.3c-3.7,14.5-6.9,28.1-10.9,41.5c-1.6,5.3-4.1,10.6-7.3,15.2
		c-4.6,6.7-12.3,9-19.9,6.5c-2.1-0.7-4.2-2.1-5.6-3.8c-0.8-1-0.5-3.6,0.3-4.8c0.6-0.8,2.9-0.6,4.4-0.5c0.9,0.1,1.6,1.1,2.4,1.7
		c6.1,4.6,11.8,4.2,15.4-2.7c4-7.6,7.1-15.8,9.4-24c3.5-12.6,6.1-25.5,9.1-38.2C492.4,33.8,492,33.3,491.5,32.7z"/>
	<path fill="#FFFFFF" d="M907.9,494.8c8.9-1.2,17.9,3.3,24.5-5.8c-1.1,6-0.8,11.8-4.5,17.8c-2.2-8.3-2.2-8.3-10-8.3
		c-10.9,0-10.8,0-13.9,10.1c-2.2,7-4.7,13.8-6.8,20c8.1,0.7,16.4,1.4,24.7,2.3c2.6,0.3,5.2,1.2,7.8,1.5c5.4,0.7,7.6-1.9,6.7-7.2
		c-0.3-1.8,0-3.9,0.9-5.5c0.4-0.7,3.4-1.1,3.9-0.5c1.3,1.4,2.6,3.5,2.6,5.4c0.1,6.3-6.2,11.9-14,12.1c-5.1,0.2-10.3-0.7-15.4-0.8
		c-11-0.2-21.9-0.1-32.9-0.1c-1.3,0-2.6,0-3.9,0c-0.2-0.4-0.4-0.8-0.6-1.2c1.4-0.9,2.9-1.8,4.3-2.7c2.4-1.6,6.3-2.7,7-4.8
		c6.2-19.4,11.8-39,17.9-59.3c-10.8,0.1-18.3,3.9-23.7,11.2c-5.1,6.8-6.1,14.2-1.9,22c1.3,2.5,3.1,5.6-0.9,7.1
		c-4.2,1.6-5.6-1.8-6.5-4.9c-4.5-15.5,7.2-33.8,24.3-38c2.7-0.7,5.6-1.2,8.4-1.2c13.3-0.1,26.6-0.1,39.9-0.1
		c0.5,5.4-1.5,11.6-4.6,12.7c-0.1-1.2-0.3-2.3-0.2-3.4c0.3-3.5-1.5-4.9-4.7-5c-6.3-0.1-12.7-0.3-19-0.1c-1.1,0-2.7,1.3-3,2.4
		C911.9,478.1,910,486,907.9,494.8z"/>
	<path fill="#FFFFFF" d="M521.1,886c-1.7,8-3.2,14.8-4.7,21.5c0,0.1-1.2,0-2.2,0c0.2-3.1,0.5-6.1,0.5-9c0-8-5.1-11.8-12.9-10.1
		c-12.7,2.9-16.8,16.1-8.1,25.7c3.7,4.1,7.7,7.9,11.1,12.1c6.7,8.2,6.8,17.6,0.6,26.2c-7.3,10.3-23.7,16.2-35.7,12.1
		c-3.9-1.3-7.7-4.1-10.4-7.1c-1.7-1.9-1.6-5.8-1.4-8.7c0.1-1.1,2.6-2.8,4-2.8c1.4,0,2.9,1.6,4.2,2.7c0.5,0.5,0.6,1.5,0.8,2.3
		c3.2,10.1,9.5,13.1,19.5,9.5c14.5-5.3,18-19.1,7.6-30.5c-2.9-3.2-6.1-6.1-9-9.4c-6.5-7.3-7.2-15.7-1.9-23.8
		c4.8-7.4,11.7-12,20.6-12.2C509.5,884.5,515.1,885.5,521.1,886z"/>
	<path fill="#FFFFFF" d="M181,228.3c9.4,4.8,18.2,9.3,27,13.8c0.3-0.3,0.5-0.6,0.8-0.9c-2.2-3.6-4.6-7.1-6.5-10.8
		c-2.2-4.4-4.7-8.9-5.8-13.7c-1.6-6.3,3.4-10.6,8.4-8.7c2.6-3.9,5.2-7.7,8.5-12.7c1.9,12.5,8.6,20.2,18.1,27.3
		c-2.3-13.7-4.5-26.5-6.7-39.2c0.4-0.1,0.8-0.2,1.2-0.4c6.9,8,13.8,16,20.6,24c0.4-0.2,0.8-0.5,1.2-0.7c-0.8-10.5-1.6-21.1-6-30.9
		c-1-2.4-3.8-3.9-5.6-6c-0.9-1-1.4-2.2-2-3.4c1.5-0.2,3.6-1,4.3-0.4c2.1,2,4.6,4.3,5.3,7c2.4,9.3,4.3,18.8,5.9,28.2
		c0.9,5,0.8,10.2,0.1,15.9c-6.8-7.3-13.6-14.6-21-22.6c2.2,12.5,4.3,24.3,6.3,36.1c-0.4,0.2-0.9,0.5-1.3,0.7
		c-9.2-7.9-20-14.3-23.1-27.8c-5.8,7.1-5.2,11.2,3.7,19.8c-1.8,0.3-3.2,0.9-4.2,0.6c-3.2-1-5.1-5.6-5.6-12.5
		c-5.9,1.5-7.4,3.6-4.7,8.9c4.2,8.5,9.2,16.6,13.9,24.8c0.9,1.6,1.9,3.1,2.8,4.6c-0.2,0.4-0.5,0.8-0.7,1.2
		c-9.8-4.5-19.6-9.1-30.3-14c3.5,6,6.8,11.3,9.7,16.7c1.7,3,3.2,6.3,4.1,9.6c1.4,4.9-1.3,10.1-5.6,11.5c-1.3,0.4-2.9-0.5-4.4-0.8
		c1-0.9,1.9-2.5,3-2.7c4.3-0.9,5.7-3.6,4.5-7.3c-1.3-4.1-3-8.1-5.2-11.8c-3.4-6.1-7.3-11.9-11-17.9c-8.1,6.1-7.9,13.5,0,18.1
		c0.8,0.5,1,1.9,1.5,2.9c-1.4,0.1-3,0.7-4,0.2c-5.4-2.6-7.4-10.6-4-16.7C176.1,234.9,178.6,231.7,181,228.3z"/>
	<path fill="#FFFFFF" d="M775.8,198.4c-6.5,3.8-12.2,7.4-18,10.5c-3,1.6-6.4,3-9.7,3.6c-4.9,0.9-10.2-3-10.3-7.2c0-1,1-2.1,1.6-3.2
		c0.8,0.7,1.9,1.4,2.2,2.3c2.3,6,4.3,7.4,10.2,4.5c9.2-4.5,18.1-9.9,27.2-14.9c-4.1-5.1-9.5-7.6-13.3-5.9c-1.9,0.9-3.2,3.1-4.8,4.6
		c-1,0.9-2.2,1.6-3.3,2.4c0-1.5-0.5-3.3,0.1-4.5c3-5.1,10.6-6.8,16.4-3.5c3.4,2,6.6,4.5,9.9,6.8c-4.7,9.2-9.2,18.1-13.8,27
		c0.3,0.2,0.6,0.5,1,0.7c4.1-2.5,8-5.1,12.3-7.3c4-2,8.1-4.1,12.4-5.1c5.9-1.4,9.9,3.1,8.9,7.9c7.5,6.9,14.7,13.5,22.2,20.3
		c-2.3,1.4-4.3,2.7-7.2,4.5c4.3-8.7-4.3-9.6-6.2-14.8c-4.6,2.7-8.6,5.1-13.5,8.1c3.9,2.9,7.2,5.4,10.6,7.9c-1.4,0.9-3.6,2.4-5.8,3.9
		c2.1-5.2-2-7.1-4.6-9.1c-1.1-0.9-4.1,0-5.9,0.7c-3.7,1.5-7.2,3.4-10.4,5c3.3,4.2,6.5,8.3,9.7,12.5c2,2.6,3.8,4.4,6.5,0.6
		c0.5-0.7,2.2-0.4,3.3-0.6c-0.3,1.3-0.2,3.1-1,3.8c-3.3,2.6-6.7,1.6-9.5-0.9c-2.2-2-3.9-4.5-6-6.7c-4.2-4.4-8.5-8.8-12.5-13
		c14.4,1.6,22.9-10.6,35.2-14.9c-7.7-8-17.3-6.5-21.8,2.4c-0.5,1-2,1.6-3,2.4c-0.2-1.5-0.9-3.2-0.4-4.4c2.1-4.8,8.3-7.5,16.8-7.6
		c-0.9-5.4-3.1-7.1-8-4.7c-8.5,4.2-16.6,9.1-24.9,13.7c-1.8,1-3.6,2.2-5.4,3.3c-0.4-0.2-0.7-0.5-1.1-0.7
		C766.2,219.1,770.7,209.2,775.8,198.4z"/>
	<path fill="#FFFFFF" d="M209.9,792c13.6-2.4,26.4-4.6,39.3-6.8c0.1,0.4,0.2,0.7,0.4,1.1c-8.1,7-16.3,14-24.4,21
		c0.3,0.6,0.6,1.3,0.8,1.9c9.9-2.1,19.9-3.8,29.7-6.4c2.8-0.7,4.9-4.1,7.4-6.1c1-0.8,2.3-1.3,3.4-1.9c0.1,1.4,0.9,3.3,0.3,4.2
		c-1.1,1.7-2.9,3.4-4.7,4.2c-14.5,6.7-30.1,6.9-45.5,7.9c-0.2-0.4-0.4-0.8-0.6-1.2c7.4-6.9,14.9-13.8,22.5-20.9
		c-12.2,2.2-24.1,4.3-36.1,6.4c-0.2-0.5-0.5-1-0.7-1.5c7.8-9.1,14.1-19.9,27.4-22.8c-5.7-5.9-12.6-5.5-17,0.9c-0.5,0.8-2,0.9-3,1.4
		c0-1.2-0.4-2.8,0.2-3.6c2.8-3.9,7.2-5.6,11.5-4.4c5.3,1.4,10.2,4.2,15.2,7.4C224.8,776,216.7,782.3,209.9,792z"/>
	<path fill="#FFFFFF" d="M789.6,797.5c4.5-7.9-0.3-12.9-3.2-18.2c-3.3-6.1-7-12-10.6-18.1c-7.4,8.4-5.8,17,3.2,21.8
		c1,0.5,1.3,2.1,2,3.2c-1.5,0.1-3.3,0.7-4.5,0.1c-6.3-3.2-9.3-13.4-5.9-20.7c1.3-2.8,3.2-5.5,5.4-7.7c4.5-4.4,9.5-8.4,14.3-12.5
		c-0.3-0.5-0.5-0.9-0.8-1.4c1.3,2,2.5,3.9,3.8,5.9c-7.1-3.5-9.6,2.9-11.8,6.1c-4,5.8,4.2,8.5,4.6,13.5c0.5,0.1,0.9,0.3,1.4,0.4
		c2.5-3.2,5-6.5,7.6-9.9c0.9,1.3,2.4,3.6,4.6,6.9c-6.8-3.2-8.1,2.4-11.5,4.9c2.6,5.2,5,10.2,7.4,14.9c4.2-3.3,8.3-6.5,12.4-9.7
		c2.5-1.9,4.7-3.7,0.7-6.4c-0.7-0.5-0.5-2.2-0.7-3.3c1.3,0.3,3.2,0.1,3.8,0.8c2.5,3.3,1.9,6.9-0.8,9.5
		C804.4,784.1,797.5,790.2,789.6,797.5z"/>
	<path fill="#FFFFFF" d="M762.2,771.9c2.3,3.3,4.3,6.4,6.4,9.4c-0.2,0.2-0.5,0.4-0.7,0.6c-0.7-0.5-1.3-1.2-2.1-1.5
		c-2.4-1.1-5.9-3.5-6.9-2.7c-2.1,1.6-3.6,4.9-4.1,7.7c-0.6,3.4,1.7,6.1,5.2,6.9c2.2,0.5,4.6,0.4,6.9,0.5c9.1,0.2,13.1,2.9,14.5,9.8
		c1.4,6.8-3.3,16.1-9.8,18.5c-2.3,0.8-5.2,0.6-7.7,0.1c-0.8-0.2-1.2-2.6-1.8-4c1.3-0.3,2.9-1.2,3.8-0.7c3.5,1.8,6.6,2.4,9.4-0.9
		c3-3.4,3.8-7.4,2.3-11.6c-1.4-4-4.7-5.3-8.7-5.4c-1.5,0-3-0.1-4.5-0.1c-5.1,0-9.7-0.9-11.9-6.4c-2.1-5.3-0.8-11.4,3.5-15.6
		C758,774.8,760.1,773.5,762.2,771.9z"/>
	<path fill="#FFFFFF" d="M218.8,757.8c-3.6,2.3-6.5,4.3-9.4,6.2c-0.1,0-0.2-0.1-0.7-0.4c0.6-0.7,1.2-1.3,1.6-2.1
		c1.1-2.4,3.5-5.9,2.7-7c-1.6-2.2-5.1-4.2-7.7-4c-2.4,0.2-5.3,2.9-6.8,5.3c-1.2,1.9-0.6,4.8-0.6,7.3c-0.2,8.9-3.3,13.1-10.4,14
		c-7.6,1-16.5-4.1-18.4-10.8c-0.5-1.7-0.8-3.9-0.2-5.3c0.7-1.4,2.7-2.2,4.2-3.2c0.3,1.5,1.2,3.2,0.7,4.5c-2,5.6-0.4,9.3,5.2,11.2
		c6,2,11.6-0.6,12.7-6c0.5-2.4,0.5-5,0.5-7.5c0-4.9,0.9-9.5,6.1-11.5c5.6-2.2,10.9-1.3,15.3,2.9
		C215.5,753.1,216.9,755.4,218.8,757.8z"/>
	<path fill="#FFFFFF" d="M458.6,231.5c-2.1,1.7-4.1,4.3-6.4,4.8c-3.4,0.6-6.1-1.8-6.2-5.6c0-3.7,2.2-6.4,5.9-5.8
		c2.4,0.4,4.4,2.8,6.6,4.3C458.6,230,458.6,230.7,458.6,231.5z"/>
	<path fill="#FFFFFF" d="M230,426.2c2.3-1.4,4.4-3.8,6.8-4c3.7-0.4,5.7,2.5,5.7,6.1c0,3.2-3.5,6.3-6.5,5.2c-2.4-0.9-4.1-3.3-6.2-5
		C229.9,427.7,230,427,230,426.2z"/>
	<path fill="#FFFFFF" d="M312.8,306.1c-0.4,3.7-2.4,5.8-6.2,5.6c-3.5-0.2-5.6-2.4-5.5-5.9c0.1-3.5,2.3-5.7,5.7-5.7
		C310.5,300.1,312.6,302.4,312.8,306.1z"/>
	<path fill="#FFFFFF" d="M422.8,235.8c0.4-3.6,2.3-5.9,6-5.9c3.7,0,5.9,2.4,5.8,6c-0.1,3.3-2.1,5.6-5.6,5.7
		C425.3,241.6,423.3,239.4,422.8,235.8z"/>
	<path fill="#FFFFFF" d="M230.5,457.7c-1.6-2.1-4.1-4-4.6-6.3c-0.9-3.7,1.8-6.1,5.4-6.2c3.7-0.2,6.4,2.3,5.9,5.9
		c-0.3,2.4-2.8,4.4-4.3,6.6C232.1,457.7,231.3,457.7,230.5,457.7z"/>
	<path fill="#FFFFFF" d="M292.8,317.6c1,1.5,3.4,3.5,3.8,5.9c0.6,3.7-2.1,5.9-5.8,5.8c-3.5,0-5.7-2.3-5.7-5.7
		C285.1,319.9,287.3,317.8,292.8,317.6z"/>
	<path fill="#FFFFFF" d="M222.4,476.3c0.4-5.3,2.2-7.6,6-7.6c3.6,0,5.4,2.2,5.8,5.6c0.3,3.2-2.8,6.7-5.8,5.9
		C226,479.6,224,477.4,222.4,476.3z"/>
	<path fill="#FFFFFF" d="M357.3,260.8c1.6-1,3.8-3.5,6.1-3.7c3.5-0.3,5.8,2.3,5.5,6.1c-0.3,3.5-2.3,5.6-5.9,5.4
		C359.3,268.5,357.5,266.1,357.3,260.8z"/>
	<path fill="#FFFFFF" d="M412.8,243.7c-2.1,1.7-3.9,4.3-6.3,4.8c-3.6,0.8-6.1-1.8-6.2-5.4c-0.2-3.7,2.2-6.4,5.8-6
		c2.4,0.3,4.4,2.8,6.6,4.3C412.8,242.2,412.8,242.9,412.8,243.7z"/>
	<path fill="#FFFFFF" d="M482,228.9c-2.2,1.5-4.3,4.1-6.6,4.3c-3.4,0.4-5.9-2.1-5.7-6c0.2-3.8,2.6-6.2,6.2-5.3
		c2.3,0.5,4.2,3,6.2,4.7C482,227.3,482,228.1,482,228.9z"/>
	<path fill="#FFFFFF" d="M274.6,348.2c-1-1.4-3.3-3.5-3.7-5.8c-0.6-3.7,2-5.8,5.8-5.8c3.6,0,5.6,2.3,5.6,5.7
		C282.4,346,280.1,348,274.6,348.2z"/>
	<path fill="#FFFFFF" d="M330.5,288.4c-0.6,5.2-2.5,7.5-6.3,7.3c-3.5-0.2-5.5-2.3-5.5-5.8c0-3.9,2.5-6.2,6-5.7
		C327,284.7,329,287.3,330.5,288.4z"/>
	<path fill="#FFFFFF" d="M349,273.7c-0.1,5.6-2.2,7.7-5.9,7.7c-3.4,0-5.7-2.1-5.7-5.7c0-3.7,2.1-6.4,5.8-5.8
		C345.6,270.3,347.6,272.7,349,273.7z"/>
	<path fill="#FFFFFF" d="M390.1,253.8c-1.4,1-3.5,3.4-5.8,3.7c-3.6,0.5-5.8-2.1-5.8-5.9c0.1-3.6,2.3-5.7,5.7-5.6
		C387.8,246.1,389.9,248.3,390.1,253.8z"/>
	<path fill="#FFFFFF" d="M265.5,368.3c-5.4-0.4-7.7-2.4-7.6-6.1c0.1-3.4,2.2-5.6,5.7-5.6c3.8,0,6.3,2.3,5.8,5.8
		C269.1,364.8,266.6,366.8,265.5,368.3z"/>
	<path fill="#FFFFFF" d="M253.1,377.5c3.6,0.4,5.7,2.5,5.5,6.2c-0.2,3.5-2.6,5.4-6,5.3c-3.5-0.1-5.7-2.2-5.7-5.7
		C247,379.7,249.2,377.7,253.1,377.5z"/>
	<path fill="#FFFFFF" d="M242.4,411.9c-1.5-2.2-4-4.2-4.4-6.5c-0.5-3.6,2.1-5.9,5.8-5.8c3.8,0.1,6.2,2.6,5.6,6.1
		c-0.5,2.3-3.1,4.2-4.7,6.3C244,411.9,243.2,411.9,242.4,411.9z"/>
	<path fill="#FFFFFF" d="M296.8,673c-0.5,3.6-2.4,5.8-6.2,5.7c-3.6-0.1-5.6-2.4-5.6-5.8c0-3.4,2.2-5.7,5.6-5.8
		C294.4,667,296.5,669.1,296.8,673z"/>
	<path fill="#FFFFFF" d="M422.8,760.7c0.4-3.6,2.4-5.9,6-5.9c3.7,0,5.8,2.5,5.7,6c-0.1,3.4-2.3,5.6-5.7,5.6
		C425.2,766.6,423.3,764.4,422.8,760.7z"/>
	<path fill="#FFFFFF" d="M452.2,771.8c-3.7-0.3-6-2.2-6.1-5.8c-0.1-3.7,2.2-5.9,5.8-6c3.4,0,5.6,2.1,5.8,5.5
		C457.9,769.2,455.7,771.1,452.2,771.8z"/>
	<path fill="#FFFFFF" d="M282.4,654.3c-0.5,3.5-2.4,5.8-6.3,5.5c-3.5-0.2-5.4-2.4-5.4-5.9c0-3.7,2.4-5.6,5.7-5.7
		C280,648.2,282.2,650.4,282.4,654.3z"/>
	<path fill="#FFFFFF" d="M259,611.2c-0.6,5.2-2.3,7.6-6.1,7.6c-3.6,0-5.7-2.1-5.8-5.5c-0.1-3.7,2.2-6.4,5.8-5.9
		C255.2,607.7,257.3,610.1,259,611.2z"/>
	<path fill="#FFFFFF" d="M312.8,690.1c-0.2,3.7-2.1,6-5.9,6c-3.5,0-5.7-2.1-5.8-5.5c-0.1-3.4,1.8-5.7,5.4-6
		C310.2,684.4,312.3,686.3,312.8,690.1z"/>
	<path fill="#FFFFFF" d="M378.2,746.1c0.6-5.3,2.6-7.5,6.4-7.3c3.6,0.1,5.4,2.4,5.4,5.8c0,3.9-2.5,6.2-6,5.6
		C381.6,749.7,379.7,747.2,378.2,746.1z"/>
	<path fill="#FFFFFF" d="M228.3,527.8c-3.6-0.5-5.8-2.4-5.7-6.2c0.1-3.6,2.4-5.5,5.8-5.6c3.5,0,5.7,2.2,5.8,5.6
		C234.3,525.3,232.2,527.4,228.3,527.8z"/>
	<path fill="#FFFFFF" d="M412,751.7c-0.2,5.5-2.3,7.7-5.9,7.8c-3.4,0-5.7-2.2-5.8-5.7c-0.1-3.6,2.2-6.4,5.8-5.8
		C408.5,748.3,410.6,750.7,412,751.7z"/>
	<path fill="#FFFFFF" d="M261.9,640c-1-1.5-3.5-3.5-3.8-5.9c-0.5-3.6,2.2-5.9,5.9-5.8c3.4,0.1,5.7,2.2,5.7,5.7
		C269.5,637.6,267.4,639.7,261.9,640z"/>
	<path fill="#FFFFFF" d="M241.9,597c-1-1.5-3.5-3.5-3.8-5.9c-0.5-3.6,2.2-5.9,5.9-5.8c3.4,0.1,5.7,2.2,5.7,5.7
		C249.6,594.8,247.4,596.8,241.9,597z"/>
	<path fill="#FFFFFF" d="M229.7,551.3c-1-1.5-3.4-3.5-3.8-5.8c-0.6-3.7,2-5.8,5.7-5.8c3.6,0,5.7,2.2,5.7,5.6
		C237.4,548.9,235.2,551,229.7,551.3z"/>
	<path fill="#FFFFFF" d="M363.5,727.7c3.6,0.4,5.5,2.4,5.5,5.9c0,3.9-2.4,5.9-6,5.8c-3.4-0.1-5.6-2.3-5.5-5.8
		C357.5,729.8,359.7,727.9,363.5,727.7z"/>
	<path fill="#FFFFFF" d="M324.2,700.6c4,0.1,5.9,2.2,6,5.7c0.1,3.7-2.2,6-5.9,5.9c-3.4-0.1-5.6-2-5.6-5.7
		C318.7,702.7,320.8,700.8,324.2,700.6z"/>
	<path fill="#FFFFFF" d="M481.3,767.1c-0.3,5.4-2.2,7.6-6,7.6c-3.5,0-5.6-2.1-5.7-5.6c-0.1-3.9,2.3-6.3,5.8-5.9
		C477.7,763.4,479.8,766,481.3,767.1z"/>
	<path fill="#FFFFFF" d="M349.1,719c-0.3,5.5-2.3,7.7-6.1,7.6c-3.5-0.1-5.6-2.3-5.6-5.7c0-3.7,2.3-6.3,5.9-5.8
		C345.7,715.5,347.7,718,349.1,719z"/>
	<path fill="#FFFFFF" d="M522.8,774.8c-3.6-0.4-6.4-2.4-5.7-5.9c0.5-2.3,3.2-5.3,5.4-5.8c3.2-0.7,6,1.9,6.1,5.6
		C528.7,772.4,526.5,774.4,522.8,774.8z"/>
	<path fill="#FFFFFF" d="M640.9,733c-0.3,4.2-2.4,6.4-6.1,6.4c-3.4,0-5.7-2.2-5.7-5.7c-0.1-3.4,1.8-5.7,5.4-5.9
		C638.4,727.5,640.1,729.9,640.9,733z"/>
	<path fill="#FFFFFF" d="M770,527.8c-3.9-0.4-6.2-2.4-6.2-6c0-3.7,2.4-5.8,6-5.8c3.4,0.1,5.6,2.2,5.7,5.7
		C775.6,525.4,773.3,527.3,770,527.8z"/>
	<path fill="#FFFFFF" d="M614,738.6c3.5,0.3,5.8,2.3,5.7,6c-0.1,3.5-2.3,5.6-5.8,5.6c-3.7,0-6-2.3-5.9-6
		C608.2,741,610.1,738.8,614,738.6z"/>
	<path fill="#FFFFFF" d="M660.8,720.7c-0.3,3.7-2.3,5.9-6,5.9c-3.5,0-5.6-2.1-5.8-5.5c-0.2-3.6,1.9-6,5.6-6.2
		C658.3,714.8,660.3,717.1,660.8,720.7z"/>
	<path fill="#FFFFFF" d="M598,755.4c-1.6,1.1-3.7,3.6-6,3.9c-3.6,0.5-6-2.3-5.8-5.9c0.1-3.3,2.1-5.7,5.8-5.6
		C595.7,747.8,597.6,750.1,598,755.4z"/>
	<path fill="#FFFFFF" d="M708.7,679c-5.3-0.7-7.4-2.8-7.3-6.5c0.1-3.5,2.5-5.6,5.9-5.5c3.6,0.1,6.3,2.5,5.5,6.1
		C712.3,675.5,709.8,677.5,708.7,679z"/>
	<path fill="#FFFFFF" d="M723.2,660.1c-5.2-0.6-7.5-2.5-7.4-6.3c0.1-3.6,2.4-5.6,5.7-5.6c3.7,0,6.3,2.5,5.8,6
		C727,656.6,724.4,658.6,723.2,660.1z"/>
	<path fill="#FFFFFF" d="M755.5,566.8c1.4-1,3.4-3.5,5.8-3.9c3.7-0.7,6,2,6,5.6c0,3.4-2.1,5.7-5.6,5.8
		C758,574.5,755.9,572.3,755.5,566.8z"/>
	<path fill="#FFFFFF" d="M672.6,713.1c-1.6-2.1-4.1-4.1-4.6-6.4c-0.7-3.5,1.7-6,5.6-6c3.8-0.1,6.3,2.3,5.8,5.9
		c-0.4,2.4-2.9,4.4-4.5,6.5C674.2,713.1,673.4,713.1,672.6,713.1z"/>
	<path fill="#FFFFFF" d="M697.8,691.6c-2.2,1.5-4.2,4-6.5,4.4c-3.6,0.6-6-2-5.9-5.7c0.1-3.7,2.4-6.3,6.1-5.5
		c2.3,0.5,4.3,2.9,6.4,4.5C697.8,690.1,697.8,690.9,697.8,691.6z"/>
	<path fill="#FFFFFF" d="M740.2,636c-1.5,1-3.5,3.3-5.9,3.7c-3.7,0.6-5.7-2.1-5.7-5.8c0-3.7,2.3-5.5,5.7-5.6
		C738,628.3,740,630.5,740.2,636z"/>
	<path fill="#FFFFFF" d="M768.3,551.4c-5.3-0.5-7.6-2.4-7.5-6.2c0-3.5,2.2-5.5,5.7-5.6c3.9-0.1,6.3,2.3,5.8,5.8
		C772,547.8,769.4,549.9,768.3,551.4z"/>
	<path fill="#FFFFFF" d="M552,765.3c-0.2,4-2.1,6.3-5.8,6.4c-3.5,0.1-5.6-2.1-5.7-5.6c-0.2-3.5,1.9-5.9,5.2-6.1
		C549.3,759.7,551.6,761.8,552,765.3z"/>
	<path fill="#FFFFFF" d="M760.2,593.1c-1.4,0.9-3.5,3.2-5.9,3.6c-3.7,0.6-5.8-2.1-5.7-5.8c0-3.7,2.4-5.5,5.7-5.5
		C758,585.3,760.1,587.6,760.2,593.1z"/>
	<path fill="#FFFFFF" d="M575.4,762.5c-1.6,1.1-3.6,3.6-6,3.9c-3.5,0.5-5.9-2.1-5.7-5.9c0.1-3.5,2.2-5.7,5.7-5.6
		C573.1,754.9,575,757.2,575.4,762.5z"/>
	<path fill="#FFFFFF" d="M739.5,610.7c1.6-0.9,3.8-3.2,6.2-3.4c3.6-0.2,5.7,2.4,5.4,6.2c-0.3,3.5-2.5,5.4-6.1,5.2
		C741.1,618.6,739.5,616.1,739.5,610.7z"/>
	<path fill="#FFFFFF" d="M653.2,269.5c5.3,0.5,7.6,2.4,7.5,6.2c0,3.6-2.3,5.6-5.7,5.7c-3.7,0.1-6.3-2.4-5.8-5.9
		C649.6,273.1,652.1,271.1,653.2,269.5z"/>
	<path fill="#FFFFFF" d="M591.9,248.8c-3.7-0.4-5.8-2.6-5.7-6.2c0.1-3.4,2.2-5.6,5.6-5.7c3.6,0,5.9,2.1,6,5.8
		C597.8,246.5,595.4,248.3,591.9,248.8z"/>
	<path fill="#FFFFFF" d="M619.8,251.9c-0.6,3.7-2.5,5.9-6.3,5.7c-3.8-0.2-5.7-2.7-5.5-6.2c0.2-3.4,2.5-5.5,5.9-5.4
		C617.6,246.1,619.5,248.4,619.8,251.9z"/>
	<path fill="#FFFFFF" d="M671.8,295.9c-1-1.5-3.4-3.5-3.8-5.9c-0.6-3.7,2.2-5.9,5.8-5.9c3.4,0,5.7,2.2,5.7,5.7
		C679.5,293.5,677.3,295.7,671.8,295.9z"/>
	<path fill="#FFFFFF" d="M635.2,268.8c-4.1-0.4-6.2-2.5-6.2-6.1c0-3.4,2.2-5.6,5.6-5.7c3.7-0.1,5.9,2,6,5.7
		C640.8,266.5,638.4,268.2,635.2,268.8z"/>
	<path fill="#FFFFFF" d="M691.8,311.9c-4.2-0.1-6.4-2.1-6.4-5.9c0-3.5,2.2-5.7,5.6-5.8c3.4-0.1,5.7,1.8,6,5.4
		C697.2,309.4,695,311.3,691.8,311.9z"/>
	<path fill="#FFFFFF" d="M760.3,434.6c-1.6-2.2-4-4.1-4.5-6.5c-0.7-3.6,1.9-6,5.6-6.1c3.7,0,6.3,2.5,5.7,6c-0.4,2.4-2.9,4.4-4.5,6.5
		C761.9,434.6,761.1,434.6,760.3,434.6z"/>
	<path fill="#FFFFFF" d="M701.1,325.3c0.5-5.3,2.3-7.6,6.1-7.6c3.5,0.1,5.6,2.1,5.7,5.6c0.1,3.8-2.3,6.3-5.8,5.8
		C704.7,328.8,702.7,326.4,701.1,325.3z"/>
	<path fill="#FFFFFF" d="M764.9,456.9c-1-1.4-3.5-3.4-3.9-5.8c-0.7-3.7,2-6,5.7-6c3.4,0,5.7,2.2,5.8,5.6
		C772.5,454.4,770.4,456.6,764.9,456.9z"/>
	<path fill="#FFFFFF" d="M771.3,468.4c1.2,1.6,3.7,3.6,4.1,5.9c0.6,3.6-2.1,6-5.7,6c-3.4,0-5.8-2.1-5.8-5.6
		C763.8,471,766,469,771.3,468.4z"/>
	<path fill="#FFFFFF" d="M520.9,221.5c5.5,0.3,7.7,2.3,7.7,6c0,3.5-2.3,5.5-5.7,5.9c-3.1,0.4-6.6-2.9-5.9-6
		C517.7,225,519.8,223,520.9,221.5z"/>
	<path fill="#FFFFFF" d="M540.2,232.2c0.5-5.2,2.3-7.5,6.2-7.5c3.6,0.1,5.5,2.2,5.6,5.7c0.1,3.9-2.5,6.3-5.9,5.8
		C543.8,236,541.7,233.4,540.2,232.2z"/>
	<path fill="#FFFFFF" d="M741,363.4c-2.1,1.6-4.1,4-6.4,4.5c-3.5,0.7-6-1.6-6-5.5c0-3.8,2.2-6.3,5.9-5.7c2.4,0.4,4.4,2.8,6.5,4.3
		C741,361.8,741,362.6,741,363.4z"/>
	<path fill="#FFFFFF" d="M745.4,377.5c3.7,0.4,5.8,2.5,5.6,6.2c-0.2,3.5-2.4,5.4-5.9,5.3c-3.5-0.1-5.6-2.1-5.6-5.6
		C739.5,379.7,741.7,377.7,745.4,377.5z"/>
	<path fill="#FFFFFF" d="M752.9,411.8c-1.5-2.2-3.8-4.2-4.2-6.6c-0.6-3.7,2-5.9,5.8-5.8c3.8,0.1,6.2,2.5,5.4,6.1
		c-0.5,2.3-3,4.2-4.6,6.3C754.5,411.9,753.7,411.9,752.9,411.8z"/>
	<path fill="#FFFFFF" d="M720.6,349c-1.6-2.1-4.1-4-4.6-6.3c-0.8-3.6,1.6-6,5.4-6.1c3.8-0.2,6.4,2.2,5.9,5.7
		c-0.3,2.3-2.8,4.4-4.4,6.6C722.2,348.9,721.4,349,720.6,349z"/>
	<path fill="#FFFFFF" d="M575.3,233.8c-0.3,5.4-2.2,7.7-5.9,7.8c-3.4,0-5.6-2.1-5.7-5.6c-0.1-3.8,2.1-6.4,5.7-5.9
		C571.7,230.3,573.8,232.7,575.3,233.8z"/>
	<path fill="#FFFFFF" d="M377.3,435.8c-5.3,0-9.5-4.1-9.5-9.4c-0.1-5.5,4.3-9.8,9.8-9.6c5.3,0.1,9.4,4.4,9.3,9.7
		C386.8,431.6,382.6,435.8,377.3,435.8z"/>
	<path fill="#FFFFFF" d="M438.4,374.9c-0.1,5.2-4.5,9.5-9.7,9.5c-5.4,0-9.9-4.7-9.6-10c0.3-5.2,4.8-9.4,9.9-9.2
		C434.2,365.3,438.5,369.8,438.4,374.9z"/>
	<path fill="#FFFFFF" d="M578.9,618.3c0,5.3-4.2,9.5-9.5,9.5c-5.5,0-9.8-4.4-9.6-9.9c0.2-5.3,4.4-9.3,9.7-9.2
		C574.8,608.8,578.9,613,578.9,618.3z"/>
	<path fill="#FFFFFF" d="M620.8,435.8c-5.2,0-9.5-4.2-9.6-9.4c-0.1-5.4,4.4-9.8,9.8-9.7c5.3,0.1,9.5,4.4,9.4,9.6
		C630.3,431.5,626,435.8,620.8,435.8z"/>
	<path fill="#FFFFFF" d="M428.6,627.8c-5.2-0.1-9.5-4.4-9.5-9.6c0-5.4,4.6-9.7,10.1-9.5c5.2,0.2,9.4,4.7,9.2,9.8
		C438.2,623.8,433.8,627.9,428.6,627.8z"/>
	<path fill="#FFFFFF" d="M377.3,576.5c-5.2,0-9.5-4.3-9.6-9.5c-0.1-5.5,4.3-9.9,9.8-9.7c5.3,0.1,9.4,4.4,9.3,9.7
		C386.8,572.1,382.5,576.5,377.3,576.5z"/>
	<path fill="#FFFFFF" d="M569.4,365.1c5.2,0,9.5,4.3,9.5,9.5c0.1,5.5-4.4,9.9-9.8,9.7c-5.2-0.2-9.3-4.5-9.3-9.8
		C559.9,369.3,564.2,365.1,569.4,365.1z"/>
	<path fill="#FFFFFF" d="M630.4,566.9c0,5.2-4.4,9.6-9.5,9.6c-5.1,0-9.6-4.4-9.7-9.5c-0.1-5.4,4.4-9.9,9.8-9.8
		C626.2,557.3,630.4,561.6,630.4,566.9z"/>
	<path fill="#FFFFFF" d="M498.6,524.1c-14.5-0.2-26-12.2-25.6-26.5c0.4-14.2,12.2-25.6,26.2-25.5c14.6,0.1,26,12.1,25.7,26.9
		C524.7,513.2,513,524.3,498.6,524.1z M499,476.6c-12,0-21.5,9.5-21.5,21.6c0,12,9.6,21.6,21.6,21.6c11.9,0,21.6-9.8,21.6-21.6
		C520.7,486.2,511,476.6,499,476.6z"/>
</g>
</svg>
