<?xml version="1.0" encoding="utf-8"?>
<!-- Generator: Adobe Illustrator 17.1.0, SVG Export Plug-In . SVG Version: 6.00 Build 0)  -->
<!DOCTYPE svg PUBLIC "-//W3C//DTD SVG 1.1//EN" "http://www.w3.org/Graphics/SVG/1.1/DTD/svg11.dtd">
<svg version="1.1" id="Layer_2" xmlns="http://www.w3.org/2000/svg" xmlns:xlink="http://www.w3.org/1999/xlink" x="0px" y="0px"
	 viewBox="0 0 1280 800" enable-background="new 0 0 1280 800" xml:space="preserve">
	 <defs>
  <style type="text/css">
   <![CDATA[
    @font-face {
        font-family: AGaramondPro-Italic;
        src: url('typefaces/Garamond/GaramondPremrPro-It.woff');
    }
   ]]>
 </style>
</defs>
<g display="none">
	<g display="inline">
		<path fill="none" stroke="#3C4D62" stroke-width="0.5" stroke-miterlimit="10" d="M622.4,1265C130.2,1265-268,866.8-268,374.6
			s398.3-890.4,890.4-890.4s890.4,398.3,890.4,890.4S1114.5,1265,622.4,1265z"/>
		<path fill="none" stroke="#3C4D62" stroke-width="0.5" stroke-miterlimit="10" d="M1364.4,374.6c0-410.1-331.9-742-742-742
			s-742,331.9-742,742s331.9,742,742,742S1364.4,784.7,1364.4,374.6z"/>
		<path fill="none" stroke="#3C4D62" stroke-width="0.5" stroke-miterlimit="10" d="M622.4,968.2c-328.1,0-593.6-265.5-593.6-593.6
			S294.3-219,622.4-219S1216,46.5,1216,374.6S950.5,968.2,622.4,968.2z"/>
		<path fill="none" stroke="#3C4D62" stroke-width="0.5" stroke-miterlimit="10" d="M1067.6,374.6c0-246.1-199.1-445.2-445.2-445.2
			S177.2,128.5,177.2,374.6s199.1,445.2,445.2,445.2S1067.6,620.7,1067.6,374.6z"/>
		<path fill="none" stroke="#3C4D62" stroke-width="0.5" stroke-miterlimit="10" d="M622.4,671.4c-164.1,0-296.8-132.8-296.8-296.8
			S458.3,77.8,622.4,77.8s296.8,132.8,296.8,296.8S786.4,671.4,622.4,671.4z"/>
		<path fill="none" stroke="#3C4D62" stroke-width="0.5" stroke-miterlimit="10" d="M770.8,374.6c0-82-66.4-148.4-148.4-148.4
			S474,292.6,474,374.6S540.4,523,622.4,523S770.8,456.6,770.8,374.6z"/>
	</g>
	<g display="inline">
		<line fill="none" stroke="#3C4D62" stroke-width="0.5" stroke-miterlimit="10" x1="622.4" y1="374.6" x2="622.4" y2="1265"/>
		<line fill="none" stroke="#3C4D62" stroke-width="0.5" stroke-miterlimit="10" x1="622.4" y1="374.6" x2="1067.6" y2="1145.7"/>
		<line fill="none" stroke="#3C4D62" stroke-width="0.5" stroke-miterlimit="10" x1="622.4" y1="374.6" x2="1393.5" y2="819.8"/>
		<line fill="none" stroke="#3C4D62" stroke-width="0.5" stroke-miterlimit="10" x1="622.4" y1="374.6" x2="1512.8" y2="374.6"/>
		<line fill="none" stroke="#3C4D62" stroke-width="0.5" stroke-miterlimit="10" x1="622.4" y1="374.6" x2="1393.5" y2="-70.6"/>
		<line fill="none" stroke="#3C4D62" stroke-width="0.5" stroke-miterlimit="10" x1="622.4" y1="374.6" x2="1067.6" y2="-396.5"/>
		<line fill="none" stroke="#3C4D62" stroke-width="0.5" stroke-miterlimit="10" x1="622.4" y1="374.6" x2="622.4" y2="-515.8"/>
		<line fill="none" stroke="#3C4D62" stroke-width="0.5" stroke-miterlimit="10" x1="622.4" y1="374.6" x2="177.2" y2="-396.5"/>
		<line fill="none" stroke="#3C4D62" stroke-width="0.5" stroke-miterlimit="10" x1="622.4" y1="374.6" x2="-148.7" y2="-70.6"/>
		<line fill="none" stroke="#3C4D62" stroke-width="0.5" stroke-miterlimit="10" x1="622.4" y1="374.6" x2="-268" y2="374.6"/>
		<line fill="none" stroke="#3C4D62" stroke-width="0.5" stroke-miterlimit="10" x1="622.4" y1="374.6" x2="-148.7" y2="819.8"/>
		<line fill="none" stroke="#3C4D62" stroke-width="0.5" stroke-miterlimit="10" x1="622.4" y1="374.6" x2="177.2" y2="1145.7"/>
	</g>
</g>
<g>
	<defs>
		<rect id="SVGID_1_" y="-4" width="1280" height="804"/>
	</defs>
	<clipPath id="SVGID_2_">
		<use xlink:href="#SVGID_1_"  overflow="visible"/>
	</clipPath>
	<g clip-path="url(#SVGID_2_)">
		<g>
			
				<circle fill="none" stroke="#3C4D62" stroke-width="2" stroke-miterlimit="10" stroke-dasharray="49.2132,49.2132" cx="643.6" cy="377" r="344.6"/>
		</g>
		<text transform="matrix(1 0 0 1 1036.5278 567.7655)" fill="#3C4D62" font-family="'AGaramondPro-Italic'" font-size="19.2639">Atlantic Ocean</text>
		<text transform="matrix(1 0 0 1 83.9555 696.5419)" fill="#3C4D62" font-family="'AGaramondPro-Italic'" font-size="19.2639">Pacific Ocean</text>
		<g>
			<defs>
				<rect id="SVGID_3_" x="-63" y="1" width="1389" height="801"/>
			</defs>
			<clipPath id="SVGID_4_">
				<use xlink:href="#SVGID_3_"  overflow="visible"/>
			</clipPath>
			<g clip-path="url(#SVGID_4_)">
				<circle fill="none" cx="643.6" cy="377" r="351.1"/>
				<text transform="matrix(0.6243 -0.7812 0.7812 0.6243 365.5556 162.4855)"><tspan x="0" y="0" fill="#3C4D62" font-family="'AGaramondPro-Italic'" font-size="19.2639">A</tspan><tspan x="11" y="0" fill="#3C4D62" font-family="'AGaramondPro-Italic'" font-size="19.2639" rotate="1.4">r</tspan><tspan x="17.1" y="0.2" fill="#3C4D62" font-family="'AGaramondPro-Italic'" font-size="19.2639" rotate="2.4">c</tspan><tspan x="23.2" y="0.4" fill="#3C4D62" font-family="'AGaramondPro-Italic'" font-size="19.2639" rotate="3.3">t</tspan><tspan x="28.3" y="0.7" fill="#3C4D62" font-family="'AGaramondPro-Italic'" font-size="19.2639" rotate="4.1">i</tspan><tspan x="33.2" y="1.1" fill="#3C4D62" font-family="'AGaramondPro-Italic'" font-size="19.2639" rotate="5">c</tspan><tspan x="39.2" y="1.6" fill="#3C4D62" font-family="'AGaramondPro-Italic'" font-size="19.2639" rotate="5.8"> </tspan><tspan x="43.6" y="2" fill="#3C4D62" font-family="'AGaramondPro-Italic'" font-size="19.2639" rotate="7.2">C</tspan><tspan x="55.4" y="3.5" fill="#3C4D62" font-family="'AGaramondPro-Italic'" font-size="19.2639" rotate="8.5">i</tspan><tspan x="60.3" y="4.2" fill="#3C4D62" font-family="'AGaramondPro-Italic'" font-size="19.2639" rotate="9.4">r</tspan><tspan x="66.4" y="5.2" fill="#3C4D62" font-family="'AGaramondPro-Italic'" font-size="19.2639" rotate="10.4">c</tspan><tspan x="72.3" y="6.3" fill="#3C4D62" font-family="'AGaramondPro-Italic'" font-size="19.2639" rotate="11.3">l</tspan><tspan x="76.6" y="7.2" fill="#3C4D62" font-family="'AGaramondPro-Italic'" font-size="19.2639" rotate="12.1">e</tspan></text>
			</g>
			<g opacity="0.6" clip-path="url(#SVGID_4_)">
				<path fill="none" d="M873.4-4.3c-2.4-1.4-4.8-2.8-7.2-4.2l-2.4,4.2H873.4z"/>
				<path fill="none" d="M420.9-8.6c-2.4,1.4-4.8,2.8-7.2,4.2h9.6L420.9-8.6z"/>
				<path fill="#3C4D62" d="M866.3-8.6c2.4,1.4,4.8,2.8,7.2,4.2h0.3c-2.4-1.5-4.9-2.9-7.3-4.3L866.3-8.6z"/>
				<path fill="#3C4D62" d="M420.9-8.6l-0.1-0.1c-2.5,1.4-4.9,2.9-7.3,4.3h0.3C416.1-5.8,418.5-7.2,420.9-8.6z"/>
				<path fill="#3C4D62" d="M863.7-4.3h0.2l2.4-4.2c0,0-0.1,0-0.1-0.1L863.7-4.3z"/>
				<path fill="#3C4D62" d="M866.3-8.6l0.1-0.1c0,0-0.1,0-0.1-0.1l-0.1,0.1C866.2-8.6,866.2-8.6,866.3-8.6z"/>
				<path fill="#3C4D62" d="M423.4-4.3L421-8.6c0,0-0.1,0-0.1,0.1l2.4,4.2H423.4z"/>
				<path fill="#3C4D62" d="M421-8.6l-0.1-0.1c0,0-0.1,0-0.1,0.1l0.1,0.1C420.9-8.6,420.9-8.6,421-8.6z"/>
				<path fill="#3C4D62" d="M1327.2,666c-11.9,28.1-25.6,55.6-40.9,82.1l0.1,0.1c15.3-26.5,29-54,40.9-82.1
					c11.4-26.9,21.1-54.5,29.2-82.6v-0.5C1348.5,611.2,1338.7,639,1327.2,666z"/>
				<path fill="#3C4D62" d="M0.8,748.1c-5.8-10-11.3-20.1-16.6-30.3v0.3c5.3,10.1,10.7,20.2,16.5,30.1L0.8,748.1z"/>
				<path fill="#3C4D62" d="M0.8,5.9c2-3.4,4-6.8,6-10.2H6.7c-2,3.4-4,6.8-6,10.1L0.8,5.9z"/>
				<path fill="#3C4D62" d="M28.2,792c-9.6-14.3-18.8-28.9-27.4-43.8l-0.1,0.1c8.6,14.9,17.8,29.6,27.4,43.8
					c0.4,0.6,0.8,1.1,1.2,1.7h0.2C29,793.2,28.6,792.6,28.2,792z"/>
				<path fill="#3C4D62" d="M1286.4,748.3l-0.1-0.1c-8.6,14.9-17.8,29.6-27.4,43.8c-0.4,0.6-0.8,1.2-1.2,1.8h0.2
					c0.4-0.6,0.8-1.1,1.2-1.7C1268.6,777.8,1277.8,763.2,1286.4,748.3z"/>
				<path fill="#3C4D62" d="M0.8,6L0.6,5.9C-5.1,15.8-10.6,25.9-15.8,36v0.3C-10.5,26.1-5,16,0.8,6z"/>
				<path fill="#3C4D62" d="M1286.3,5.9l0.1-0.1c-2-3.4-4-6.8-6-10.1h-0.2C1282.3-0.9,1284.3,2.5,1286.3,5.9z"/>
				<path fill="#3C4D62" d="M1286.5,5.9l-0.1,0.1c15.3,26.5,29,54,40.9,82.1c11.4,27,21.2,54.8,29.4,83.1v-0.5
					c-8.1-28.1-17.9-55.7-29.2-82.6C1315.5,59.9,1301.8,32.5,1286.5,5.9z"/>
				<path fill="#3C4D62" d="M1135.8,709c-20.4,30.2-43.8,58.8-69.4,84.8h0.2c25.6-26,49-54.5,69.4-84.7c7.7-11.4,15-23.1,21.9-35.1
					l-0.1-0.1C1150.8,685.9,1143.5,697.6,1135.8,709z"/>
				<path fill="#3C4D62" d="M1190.5,145.9c15.1,35.8,26.8,73.3,34.6,111.5c8,39.1,12,79.3,12,119.6h0.1c0-40.3-4.1-80.6-12.1-119.7
					c-7.8-38.1-19.4-75.6-34.6-111.5c-9.5-22.5-20.5-44.5-32.7-65.7l-0.1,0.1C1170,101.4,1181,123.4,1190.5,145.9z"/>
				<path fill="#3C4D62" d="M62.1,257.3c7.8-38.1,19.4-75.6,34.6-111.5c9.5-22.5,20.4-44.5,32.7-65.7l-0.1-0.1
					c-12.3,21.2-23.2,43.2-32.7,65.7c-15.1,35.8-26.8,73.3-34.6,111.5c-8,39.1-12,79.4-12.1,119.7H50
					C50,336.7,54.1,296.4,62.1,257.3z"/>
				<path fill="#3C4D62" d="M151.3,45.1c11.5-17.1,24-33.6,37.3-49.4h-0.2C175.1,11.5,162.7,28,151.2,45
					c-7.7,11.4-15,23.1-21.9,35.1l0.1,0.1C136.3,68.2,143.6,56.5,151.3,45.1z"/>
				<path fill="#3C4D62" d="M96.6,608.2c-15.1-35.8-26.8-73.3-34.6-111.5c-8-39.1-12-79.3-12-119.6h-0.1c0,40.3,4.1,80.6,12.1,119.7
					c7.8,38.1,19.4,75.6,34.6,111.5c9.5,22.5,20.5,44.5,32.7,65.7l0.1-0.1C117.1,652.6,106.1,630.7,96.6,608.2z"/>
				<path fill="#3C4D62" d="M1225.1,496.7c-7.8,38.1-19.4,75.6-34.6,111.5c-9.5,22.5-20.4,44.5-32.7,65.7l0.1,0.1
					c12.3-21.2,23.2-43.2,32.7-65.7c15.1-35.8,26.8-73.3,34.6-111.5c8-39.1,12-79.4,12.1-119.7h-0.1
					C1237.1,417.4,1233,457.6,1225.1,496.7z"/>
				<path fill="#3C4D62" d="M1135.8,45.1c7.7,11.4,15,23.1,21.9,35l0.1-0.1c-6.9-11.9-14.2-23.6-21.9-35.1
					c-11.5-17-23.9-33.5-37.2-49.3h-0.2C1111.8,11.5,1124.3,28,1135.8,45.1z"/>
				<path fill="#3C4D62" d="M151.3,709c-7.7-11.4-15-23.1-21.9-35l-0.1,0.1c6.9,11.9,14.2,23.6,21.9,35.1
					c20.4,30.2,43.7,58.7,69.4,84.7h0.2C195.1,767.8,171.7,739.3,151.3,709z"/>
				<path fill="#3C4D62" d="M866.2,762.8l-0.1-0.1c-15.9,9.2-32.4,17.4-49.2,24.5c-5.4,2.3-10.9,4.5-16.5,6.6h0.4
					c5.4-2,10.8-4.2,16.1-6.4C833.8,780.2,850.3,772,866.2,762.8z"/>
				<path fill="#3C4D62" d="M274.4,128.1c15.9-23.6,34.2-45.7,54.3-65.9c20.1-20.1,42.3-38.4,65.9-54.3c6.3-4.2,12.6-8.3,19.1-12.2
					h-0.3c-6.4,3.9-12.7,7.9-18.9,12.1c-23.6,15.9-45.7,34.2-65.9,54.3c-20.1,20.1-38.4,42.3-54.4,65.9
					c-5.8,8.6-11.3,17.3-16.4,26.3l0.1,0.1C263.1,145.4,268.6,136.6,274.4,128.1z"/>
				<path fill="#3C4D62" d="M394.6,746.2c-23.6-15.9-45.7-34.2-65.9-54.3c-20.1-20.1-38.4-42.3-54.3-65.9
					c-5.8-8.6-11.3-17.3-16.4-26.3l-0.1,0.1c5.2,8.9,10.7,17.7,16.4,26.3c15.9,23.6,34.2,45.7,54.4,65.9
					c20.1,20.1,42.3,38.4,65.9,54.3c8.6,5.8,17.3,11.3,26.3,16.4l0.1-0.1C411.9,757.5,403.1,752,394.6,746.2z"/>
				<path fill="#3C4D62" d="M470.2,787.2c-16.9-7.1-33.3-15.3-49.2-24.5l-0.1,0.1c15.9,9.2,32.4,17.4,49.2,24.5
					c5.3,2.3,10.7,4.4,16.1,6.4h0.4C481.1,791.7,475.6,789.5,470.2,787.2z"/>
				<path fill="#3C4D62" d="M207.5,287.3c5.8-28.6,14.6-56.7,25.9-83.6c7.1-16.9,15.3-33.3,24.5-49.2l-0.1-0.1
					c-9.2,15.9-17.4,32.4-24.5,49.2c-11.4,26.9-20.1,55-25.9,83.6c-6,29.3-9,59.5-9,89.7h0.1C198.4,346.8,201.5,316.6,207.5,287.3z"
					/>
				<path fill="#3C4D62" d="M233.4,550.4c-11.4-26.9-20.1-55-25.9-83.6c-6-29.3-9-59.5-9-89.7h-0.1c0,30.2,3,60.4,9,89.7
					c5.8,28.6,14.6,56.7,25.9,83.6c7.1,16.9,15.3,33.3,24.5,49.2l0.1-0.1C248.7,583.7,240.5,567.3,233.4,550.4z"/>
				<path fill="#3C4D62" d="M1012.7,626c-15.9,23.6-34.2,45.7-54.3,65.9c-20.1,20.1-42.3,38.4-65.9,54.3
					c-8.6,5.8-17.3,11.3-26.3,16.4l0.1,0.1c8.9-5.2,17.7-10.7,26.3-16.4c23.6-15.9,45.7-34.2,65.9-54.3
					c20.1-20.1,38.4-42.3,54.3-65.9c5.8-8.6,11.3-17.3,16.4-26.3l-0.1-0.1C1024,608.7,1018.5,617.5,1012.7,626z"/>
				<path fill="#3C4D62" d="M892.5,7.9c23.6,15.9,45.7,34.2,65.9,54.3c20.1,20.1,38.4,42.3,54.3,65.9c5.8,8.6,11.3,17.3,16.4,26.3
					l0.1-0.1c-5.2-8.9-10.7-17.7-16.4-26.3c-15.9-23.6-34.2-45.7-54.3-65.9C938.3,42,916.2,23.7,892.6,7.8
					c-6.2-4.2-12.5-8.2-18.9-12.1h-0.3C879.9-0.4,886.3,3.6,892.5,7.9z"/>
				<path fill="#3C4D62" d="M1079.7,466.8c-5.8,28.6-14.6,56.7-25.9,83.6c-7.1,16.9-15.3,33.3-24.5,49.2l0.1,0.1
					c9.2-15.9,17.4-32.4,24.5-49.2c11.4-26.9,20.1-55,25.9-83.6c6-29.3,9-59.5,9-89.7h-0.1C1088.7,407.3,1085.7,437.5,1079.7,466.8z
					"/>
				<path fill="#3C4D62" d="M1053.7,203.7c11.4,26.9,20.1,55,25.9,83.6c6,29.3,9,59.5,9,89.7h0.1c0-30.2-3-60.4-9-89.7
					c-5.8-28.6-14.6-56.7-25.9-83.6c-7.1-16.9-15.3-33.3-24.5-49.2l-0.1,0.1C1038.4,170.4,1046.6,186.8,1053.7,203.7z"/>
				<path fill="#3C4D62" d="M583.7,667.8c-19.1-3.9-37.8-9.7-55.7-17.3c-11.2-4.7-22.2-10.2-32.8-16.3l-0.1,0.1
					c10.6,6.1,21.6,11.6,32.8,16.3c17.9,7.6,36.7,13.4,55.7,17.3c19.5,4,39.7,6,59.8,6v-0.1C623.4,673.8,603.3,671.8,583.7,667.8z"
					/>
				<path fill="#3C4D62" d="M934.3,436.9c-3.9,19.1-9.7,37.8-17.3,55.7c-4.7,11.2-10.2,22.2-16.3,32.8l0.1,0.1
					c6.1-10.6,11.6-21.6,16.3-32.8c7.6-17.9,13.4-36.7,17.3-55.7c4-19.5,6-39.7,6-59.8h-0.1C940.3,397.2,938.3,417.3,934.3,436.9z"
					/>
				<path fill="#3C4D62" d="M889.7,543c-10.6,15.7-22.8,30.5-36.2,43.9c-13.4,13.4-28.2,25.6-43.9,36.2c-5.7,3.8-11.5,7.5-17.5,10.9
					l0.1,0.1c6-3.4,11.8-7.1,17.5-10.9c15.7-10.6,30.5-22.8,43.9-36.2c13.4-13.4,25.6-28.2,36.2-43.9c3.8-5.7,7.5-11.5,10.9-17.5
					l-0.1-0.1C897.1,531.5,893.5,537.3,889.7,543z"/>
				<path fill="#3C4D62" d="M917,261.5c7.6,17.9,13.4,36.7,17.3,55.7c4,19.5,6,39.6,6,59.8h0.1c0-20.1-2-40.3-6-59.8
					c-3.9-19.1-9.7-37.8-17.3-55.7c-4.7-11.2-10.2-22.2-16.3-32.8l-0.1,0.1C906.8,239.3,912.3,250.3,917,261.5z"/>
				<path fill="#3C4D62" d="M759.1,650.5c-17.9,7.6-36.7,13.4-55.7,17.3c-19.5,4-39.6,6-59.8,6v0.1c20.1,0,40.3-2,59.8-6
					c19.1-3.9,37.8-9.7,55.7-17.3c11.2-4.7,22.2-10.2,32.8-16.3l-0.1-0.1C781.3,640.3,770.4,645.7,759.1,650.5z"/>
				<path fill="#3C4D62" d="M703.4,86.3c19.1,3.9,37.8,9.7,55.7,17.3c11.2,4.7,22.2,10.2,32.8,16.3l0.1-0.1
					c-10.6-6.1-21.6-11.6-32.8-16.3c-17.9-7.6-36.7-13.4-55.7-17.3c-19.5-4-39.7-6-59.8-6v0.1C663.8,80.3,683.9,82.3,703.4,86.3z"/>
				<path fill="#3C4D62" d="M583.7,86.3c19.5-4,39.6-6,59.8-6v-0.1c-20.1,0-40.3,2-59.8,6c-19.1,3.9-37.8,9.7-55.7,17.3
					c-11.2,4.7-22.2,10.2-32.8,16.3l0.1,0.1c10.6-6.1,21.6-11.6,32.8-16.3C545.9,96,564.7,90.2,583.7,86.3z"/>
				<path fill="#3C4D62" d="M397.5,211.1c10.6-15.7,22.8-30.5,36.2-43.9c13.4-13.4,28.2-25.6,43.9-36.2c5.7-3.8,11.5-7.5,17.5-10.9
					l-0.1-0.1c-6,3.4-11.8,7.1-17.5,10.9c-15.7,10.6-30.5,22.8-43.9,36.2c-13.4,13.4-25.6,28.2-36.2,43.9
					c-3.8,5.7-7.5,11.5-10.9,17.5l0.1,0.1C390,222.6,393.6,216.8,397.5,211.1z"/>
				<path fill="#3C4D62" d="M370.1,492.6c-7.6-17.9-13.4-36.7-17.3-55.7c-4-19.5-6-39.6-6-59.8h-0.1c0,20.1,2,40.3,6,59.8
					c3.9,19.1,9.7,37.8,17.3,55.7c4.7,11.2,10.2,22.2,16.3,32.8l0.1-0.1C380.3,514.8,374.9,503.8,370.1,492.6z"/>
				<path fill="#3C4D62" d="M477.6,623.1c-15.7-10.6-30.5-22.8-43.9-36.2c-13.4-13.4-25.6-28.2-36.2-43.9
					c-3.8-5.7-7.5-11.5-10.9-17.5l-0.1,0.1c3.4,6,7.1,11.8,10.9,17.5c10.6,15.7,22.8,30.5,36.2,43.9c13.4,13.4,28.2,25.6,43.9,36.2
					c5.7,3.8,11.5,7.5,17.5,10.9l0.1-0.1C489.1,630.6,483.3,627,477.6,623.1z"/>
				<path fill="#3C4D62" d="M352.8,317.2c3.9-19.1,9.7-37.8,17.3-55.7c4.7-11.2,10.2-22.2,16.3-32.8l-0.1-0.1
					c-6.1,10.6-11.6,21.6-16.3,32.8c-7.6,17.9-13.4,36.7-17.3,55.7c-4,19.5-6,39.7-6,59.8h0.1C346.8,356.8,348.9,336.7,352.8,317.2z
					"/>
				<path fill="#3C4D62" d="M809.5,130.9c15.7,10.6,30.5,22.8,43.9,36.2c13.4,13.4,25.6,28.2,36.2,43.9c3.8,5.7,7.5,11.5,10.9,17.5
					l0.1-0.1c-3.4-6-7.1-11.8-10.9-17.5c-10.6-15.7-22.8-30.5-36.2-43.9c-13.4-13.4-28.2-25.6-43.9-36.2
					c-5.7-3.8-11.5-7.5-17.5-10.9L792,120C798,123.5,803.8,127.1,809.5,130.9z"/>
				<path fill="#3C4D62" d="M585.8,240.4c18.3-7.7,37.7-11.6,57.7-11.6v-0.1c-20,0-39.5,3.9-57.8,11.7c-5.7,2.4-11.1,5.1-16.4,8.1
					l0.1,0.1C574.7,245.5,580.1,242.7,585.8,240.4z"/>
				<path fill="#3C4D62" d="M780.2,434.8c-2.4,5.6-5.1,11.1-8.1,16.4l0.1,0.1c3-5.3,5.8-10.7,8.1-16.4c7.7-18.3,11.6-37.7,11.7-57.8
					h-0.1C791.9,397.1,788,416.5,780.2,434.8z"/>
				<path fill="#3C4D62" d="M506.9,434.8c-7.7-18.3-11.6-37.7-11.6-57.7h-0.1c0,20,3.9,39.5,11.7,57.8c2.4,5.7,5.1,11.1,8.1,16.4
					l0.1-0.1C512,445.9,509.3,440.5,506.9,434.8z"/>
				<path fill="#3C4D62" d="M538.6,272.1c9.2-9.2,19.5-17.1,30.7-23.6l-0.1-0.1C558.1,254.9,547.8,262.8,538.6,272.1
					c-9.3,9.1-17.2,19.4-23.7,30.6l0.1,0.1C521.5,291.6,529.4,281.4,538.6,272.1z"/>
				<path fill="#3C4D62" d="M506.9,319.3c2.4-5.6,5.1-11.1,8.1-16.4l-0.1-0.1c-3,5.3-5.8,10.7-8.1,16.4
					c-7.7,18.3-11.6,37.7-11.7,57.8h0.1C495.2,357,499.2,337.5,506.9,319.3z"/>
				<path fill="#3C4D62" d="M748.5,482c-9.2,9.2-19.5,17.1-30.7,23.6l0.1,0.1C729.1,499.2,739.3,491.3,748.5,482
					c9.3-9.1,17.2-19.4,23.7-30.6l-0.1-0.1C765.6,462.5,757.7,472.7,748.5,482z"/>
				<path fill="#3C4D62" d="M780.2,319.3c7.7,18.3,11.6,37.7,11.6,57.7h0.1c0-20-3.9-39.5-11.7-57.8c-2.4-5.7-5.1-11.1-8.1-16.4
					l-0.1,0.1C775.1,308.2,777.9,313.6,780.2,319.3z"/>
				<path fill="#3C4D62" d="M701.3,513.7c-18.3,7.7-37.7,11.6-57.7,11.6v0.1c20,0,39.5-3.9,57.8-11.7c5.7-2.4,11.1-5.1,16.4-8.1
					l-0.1-0.1C712.4,508.6,707,511.3,701.3,513.7z"/>
				<path fill="#3C4D62" d="M701.3,240.4c5.6,2.4,11.1,5.1,16.4,8.1l0.1-0.1c-5.3-3-10.7-5.8-16.4-8.1
					c-18.3-7.7-37.7-11.6-57.8-11.7v0.1C663.6,228.7,683.1,232.6,701.3,240.4z"/>
				<path fill="#3C4D62" d="M748.5,272.1c9.2,9.2,17.1,19.5,23.6,30.7l0.1-0.1C765.7,291.5,757.8,281.3,748.5,272.1
					c-9.1-9.3-19.4-17.2-30.6-23.7l-0.1,0.1C729,255,739.2,262.9,748.5,272.1z"/>
				<path fill="#3C4D62" d="M538.6,482c-9.2-9.2-17.1-19.5-23.6-30.7l-0.1,0.1C521.4,462.5,529.3,472.8,538.6,482
					c9.1,9.3,19.4,17.2,30.6,23.7l0.1-0.1C558.1,499.1,547.9,491.2,538.6,482z"/>
				<path fill="#3C4D62" d="M585.8,513.7c-5.6-2.4-11.1-5.1-16.4-8.1l-0.1,0.1c5.3,3,10.7,5.8,16.4,8.1
					c18.3,7.7,37.7,11.6,57.8,11.7v-0.1C623.5,525.4,604.1,521.5,585.8,513.7z"/>
				<path fill="#3C4D62" d="M643.6,525.5C643.5,525.5,643.5,525.5,643.6,525.5l-0.1,148.3c0,0,0,0,0.1,0s0,0,0.1,0L643.6,525.5
					C643.6,525.5,643.6,525.5,643.6,525.5z"/>
				<path fill="#3C4D62" d="M643.5,673.9v119.9h0.1V673.9C643.6,673.9,643.6,673.9,643.5,673.9C643.5,673.9,643.5,673.9,643.5,673.9
					z"/>
				<path fill="#3C4D62" d="M643.6,377.2l-0.1,0.1v148.1c0,0,0,0,0.1,0s0,0,0.1,0V377.3L643.6,377.2z"/>
				<path fill="#3C4D62" d="M643.6,673.8C643.5,673.8,643.5,673.8,643.6,673.8l-0.1,0.1c0,0,0,0,0.1,0s0,0,0.1,0L643.6,673.8
					C643.6,673.8,643.6,673.8,643.6,673.8z"/>
				<path fill="#3C4D62" d="M643.6,525.4C643.5,525.4,643.5,525.4,643.6,525.4l-0.1,0.1c0,0,0,0,0.1,0s0,0,0.1,0L643.6,525.4
					C643.6,525.4,643.6,525.4,643.6,525.4z"/>
				<path fill="#3C4D62" d="M884.1,793.8h0.2l-17.9-31c0,0-0.1,0-0.1,0.1L884.1,793.8z"/>
				<path fill="#3C4D62" d="M792,634.3l74.2,128.5c0,0,0.1,0,0.1-0.1l-74.2-128.5C792.1,634.2,792,634.2,792,634.3z"/>
				<path fill="#3C4D62" d="M717.8,505.7l74.2,128.4c0,0,0.1,0,0.1-0.1l-74.2-128.4C717.8,505.7,717.8,505.7,717.8,505.7z"/>
				<path fill="#3C4D62" d="M643.6,377.2v0.1l74.1,128.3c0,0,0.1,0,0.1-0.1l-74.1-128.3L643.6,377.2z"/>
				<path fill="#3C4D62" d="M866.1,762.7l0.1,0.1c0,0,0.1,0,0.1-0.1l-0.1-0.1C866.2,762.7,866.2,762.7,866.1,762.7z"/>
				<path fill="#3C4D62" d="M791.9,634.1l0.1,0.1c0,0,0.1,0,0.1-0.1l-0.1-0.1C792,634.1,792,634.1,791.9,634.1z"/>
				<path fill="#3C4D62" d="M717.7,505.6l0.1,0.1c0,0,0.1,0,0.1-0.1l-0.1-0.1C717.8,505.5,717.7,505.6,717.7,505.6z"/>
				<polygon fill="#3C4D62" points="643.6,377.2 643.6,377.3 643.6,377.2 643.6,377.1 				"/>
				<path fill="#3C4D62" d="M643.7,377.1l0.1,0.1L772,451.3c0,0,0-0.1,0.1-0.1l-128.3-74.1H643.7z"/>
				<path fill="#3C4D62" d="M900.7,525.6l128.5,74.2c0,0,0-0.1,0.1-0.1l-128.5-74.2C900.8,525.5,900.7,525.5,900.7,525.6z"/>
				<path fill="#3C4D62" d="M772.2,451.4l128.4,74.2c0,0,0-0.1,0.1-0.1l-128.4-74.2C772.2,451.3,772.2,451.3,772.2,451.4z"/>
				<path fill="#3C4D62" d="M1029.3,599.8l128.4,74.2c0,0,0-0.1,0.1-0.1l-128.4-74.2C1029.3,599.7,1029.3,599.8,1029.3,599.8z"/>
				<path fill="#3C4D62" d="M1286.4,748.3l70.2,40.5v-0.2l-70.1-40.5C1286.4,748.2,1286.4,748.2,1286.4,748.3z"/>
				<path fill="#3C4D62" d="M1157.8,674l128.4,74.2c0,0,0-0.1,0.1-0.1l-128.4-74.2C1157.9,674,1157.9,674,1157.8,674z"/>
				<path fill="#3C4D62" d="M1286.4,748.3c0,0,0-0.1,0.1-0.1l-0.1-0.1c0,0,0,0.1-0.1,0.1L1286.4,748.3z"/>
				<path fill="#3C4D62" d="M1157.7,674l0.1,0.1c0,0,0-0.1,0.1-0.1l-0.1-0.1C1157.8,673.9,1157.7,673.9,1157.7,674z"/>
				<path fill="#3C4D62" d="M1029.2,599.7l0.1,0.1c0,0,0-0.1,0.1-0.1l-0.1-0.1C1029.2,599.7,1029.2,599.7,1029.2,599.7z"/>
				<path fill="#3C4D62" d="M900.6,525.5l0.1,0.1c0,0,0-0.1,0.1-0.1l-0.1-0.1C900.6,525.4,900.6,525.5,900.6,525.5z"/>
				<path fill="#3C4D62" d="M772,451.3l0.1,0.1c0,0,0-0.1,0.1-0.1l-0.1-0.1C772.1,451.2,772.1,451.3,772,451.3z"/>
				<polygon fill="#3C4D62" points="643.6,377.2 643.7,377.2 643.7,377.1 643.6,377.1 				"/>
				<polygon fill="#3C4D62" points="643.6,377.1 643.6,377.1 643.6,377.2 643.6,377.1 				"/>
				<path fill="#3C4D62" d="M643.7,377l0.1,0.1h148.1c0,0,0,0,0-0.1s0,0,0-0.1H643.8L643.7,377z"/>
				<path fill="#3C4D62" d="M1088.8,377C1088.8,377.1,1088.8,377.1,1088.8,377l148.3,0.1c0,0,0,0,0-0.1s0,0,0-0.1L1088.8,377
					C1088.8,377,1088.8,377,1088.8,377z"/>
				<path fill="#3C4D62" d="M1237.2,377.1h119.4V377h-119.4C1237.2,377,1237.2,377,1237.2,377.1
					C1237.2,377.1,1237.2,377.1,1237.2,377.1z"/>
				<path fill="#3C4D62" d="M792,377C792,377.1,792,377.1,792,377l148.3,0.1c0,0,0,0,0-0.1s0,0,0-0.1L792,377
					C792,377,792,377,792,377z"/>
				<path fill="#3C4D62" d="M940.4,377C940.4,377.1,940.4,377.1,940.4,377l148.3,0.1c0,0,0,0,0-0.1s0,0,0-0.1L940.4,377
					C940.4,377,940.4,377,940.4,377z"/>
				<path fill="#3C4D62" d="M1237.1,377C1237.1,377.1,1237.1,377.1,1237.1,377l0.1,0.1c0,0,0,0,0-0.1s0,0,0-0.1L1237.1,377
					C1237.1,377,1237.1,377,1237.1,377z"/>
				<path fill="#3C4D62" d="M1088.7,377C1088.7,377.1,1088.7,377.1,1088.7,377l0.1,0.1c0,0,0,0,0-0.1s0,0,0-0.1L1088.7,377
					C1088.7,377,1088.7,377,1088.7,377z"/>
				<path fill="#3C4D62" d="M940.3,377C940.3,377.1,940.3,377.1,940.3,377l0.1,0.1c0,0,0,0,0-0.1s0,0,0-0.1L940.3,377
					C940.3,377,940.3,377,940.3,377z"/>
				<path fill="#3C4D62" d="M791.9,377C791.9,377.1,791.9,377.1,791.9,377l0.1,0.1c0,0,0,0,0-0.1s0,0,0-0.1L791.9,377
					C791.9,377,791.9,377,791.9,377z"/>
				<polygon fill="#3C4D62" points="643.7,377.1 643.8,377.1 643.7,377 643.7,377.1 				"/>
				<polygon fill="#3C4D62" points="643.6,377.1 643.6,377.1 643.7,377.1 643.7,377.1 				"/>
				<polygon fill="#3C4D62" points="643.6,377.1 643.6,377.1 643.6,377.1 643.6,377.1 				"/>
				<path fill="#3C4D62" d="M772.2,302.8l128.4-74.2c0,0,0-0.1-0.1-0.1l-128.4,74.2C772.2,302.8,772.2,302.8,772.2,302.8z"/>
				<path fill="#3C4D62" d="M643.7,377h0.1l128.3-74.1c0,0,0-0.1-0.1-0.1l-128.3,74.1L643.7,377z"/>
				<path fill="#3C4D62" d="M900.8,228.6l128.5-74.2c0,0,0-0.1-0.1-0.1l-128.5,74.2C900.7,228.5,900.8,228.6,900.8,228.6z"/>
				<path fill="#3C4D62" d="M1029.3,154.4l128.4-74.2c0,0,0-0.1-0.1-0.1l-128.4,74.2C1029.3,154.3,1029.3,154.3,1029.3,154.4z"/>
				<path fill="#3C4D62" d="M1286.5,5.9l17.8-10.3h-0.3l-17.6,10.1C1286.4,5.9,1286.4,5.9,1286.5,5.9z"/>
				<path fill="#3C4D62" d="M1157.9,80.2L1286.4,6c0,0,0-0.1-0.1-0.1L1157.8,80C1157.9,80.1,1157.9,80.1,1157.9,80.2z"/>
				<path fill="#3C4D62" d="M1286.5,5.9c0,0,0-0.1-0.1-0.1l-0.1,0.1c0,0,0,0.1,0.1,0.1L1286.5,5.9z"/>
				<path fill="#3C4D62" d="M1157.7,80.1c0,0,0,0.1,0.1,0.1l0.1-0.1c0,0,0-0.1-0.1-0.1L1157.7,80.1z"/>
				<path fill="#3C4D62" d="M1029.2,154.5l0.1-0.1c0,0,0-0.1-0.1-0.1l-0.1,0.1C1029.2,154.4,1029.2,154.4,1029.2,154.5z"/>
				<path fill="#3C4D62" d="M900.7,228.7l0.1-0.1c0,0,0-0.1-0.1-0.1l-0.1,0.1C900.6,228.6,900.6,228.6,900.7,228.7z"/>
				<path fill="#3C4D62" d="M772.1,302.9l0.1-0.1c0,0,0-0.1-0.1-0.1l-0.1,0.1C772.1,302.8,772.1,302.9,772.1,302.9z"/>
				<polygon fill="#3C4D62" points="643.7,377 643.8,377 643.7,377 643.7,377 				"/>
				<polygon fill="#3C4D62" points="643.6,377 643.7,377.1 643.7,377 643.7,377 				"/>
				<polygon fill="#3C4D62" points="643.6,377.1 643.7,377.1 643.6,377 643.6,377.1 				"/>
				<polygon fill="#3C4D62" points="643.6,377.1 643.6,377.1 643.6,377.1 643.6,377.1 				"/>
				<path fill="#3C4D62" d="M792.1,119.9L863.8-4.3h-0.2L792,119.8C792,119.8,792.1,119.9,792.1,119.9z"/>
				<path fill="#3C4D62" d="M717.9,248.4L792,120c0,0-0.1,0-0.1-0.1l-74.2,128.4C717.8,248.4,717.8,248.4,717.9,248.4z"/>
				<path fill="#3C4D62" d="M643.6,376.9l0.1-0.1l74.1-128.3c0,0-0.1,0-0.1-0.1l-74.1,128.3V376.9z"/>
				<path fill="#3C4D62" d="M791.9,119.9c0,0,0.1,0,0.1,0.1l0.1-0.1c0,0-0.1,0-0.1-0.1L791.9,119.9z"/>
				<path fill="#3C4D62" d="M717.8,248.6l0.1-0.1c0,0-0.1,0-0.1-0.1l-0.1,0.1C717.7,248.5,717.8,248.5,717.8,248.6z"/>
				<polygon fill="#3C4D62" points="643.7,377 643.7,376.9 643.6,376.9 643.6,377 				"/>
				<polygon fill="#3C4D62" points="643.6,377 643.7,377 643.7,377 643.6,377 				"/>
				<polygon fill="#3C4D62" points="643.6,377 643.7,377 643.6,377 643.6,377 				"/>
				<polygon fill="#3C4D62" points="643.6,377 643.6,377.1 643.6,377 643.6,377 				"/>
				<polygon fill="#3C4D62" points="643.6,377.1 643.6,377.1 643.6,377 643.6,377 				"/>
				<path fill="#3C4D62" d="M643.6,80.2C643.6,80.2,643.6,80.2,643.6,80.2l0.1-84.5h-0.1L643.6,80.2
					C643.5,80.2,643.5,80.2,643.6,80.2z"/>
				<path fill="#3C4D62" d="M643.6,376.9l0.1-0.1V228.7c0,0,0,0-0.1,0s0,0-0.1,0v148.1L643.6,376.9z"/>
				<path fill="#3C4D62" d="M643.6,228.6C643.6,228.6,643.6,228.6,643.6,228.6l0.1-148.3c0,0,0,0-0.1,0s0,0-0.1,0L643.6,228.6
					C643.5,228.6,643.5,228.6,643.6,228.6z"/>
				<path fill="#3C4D62" d="M643.5,80.2v0.1c0,0,0,0,0.1,0s0,0,0.1,0v-0.1C643.6,80.2,643.6,80.2,643.5,80.2
					C643.5,80.2,643.5,80.2,643.5,80.2z"/>
				<path fill="#3C4D62" d="M643.5,228.6v0.1c0,0,0,0,0.1,0s0,0,0.1,0v-0.1C643.6,228.6,643.6,228.6,643.5,228.6
					C643.5,228.6,643.5,228.6,643.5,228.6z"/>
				<polygon fill="#3C4D62" points="643.6,376.9 643.6,376.8 643.6,376.9 643.6,377 				"/>
				<polygon fill="#3C4D62" points="643.6,377 643.6,377 643.6,376.9 643.6,377 				"/>
				<polygon fill="#3C4D62" points="643.6,377 643.6,377 643.6,377 643.6,377 				"/>
				<polygon fill="#3C4D62" points="643.6,377 643.6,377 643.6,377 643.6,377 				"/>
				<polygon fill="#3C4D62" points="643.6,377 643.6,377 643.6,377 643.6,377 				"/>
				<path fill="#3C4D62" d="M423.4-4.3h-0.2L495,119.9c0,0,0.1,0,0.1-0.1L423.4-4.3z"/>
				<path fill="#3C4D62" d="M569.4,248.4l-74.2-128.4c0,0-0.1,0-0.1,0.1l74.2,128.4C569.3,248.4,569.3,248.4,569.4,248.4z"/>
				<path fill="#3C4D62" d="M643.5,376.9v-0.1l-74.1-128.3c0,0-0.1,0-0.1,0.1l74.1,128.3L643.5,376.9z"/>
				<path fill="#3C4D62" d="M495.2,119.9l-0.1-0.1c0,0-0.1,0-0.1,0.1l0.1,0.1C495.1,120,495.2,120,495.2,119.9z"/>
				<path fill="#3C4D62" d="M569.4,248.5l-0.1-0.1c0,0-0.1,0-0.1,0.1l0.1,0.1C569.3,248.5,569.4,248.5,569.4,248.5z"/>
				<polygon fill="#3C4D62" points="643.5,377 643.6,376.9 643.5,376.8 643.5,376.9 				"/>
				<polygon fill="#3C4D62" points="643.6,377 643.6,377 643.6,376.9 643.5,377 				"/>
				<polygon fill="#3C4D62" points="643.6,377 643.6,377 643.6,377 643.6,377 				"/>
				<polygon fill="#3C4D62" points="643.6,377 643.6,377 643.6,377 643.6,377 				"/>
				<polygon fill="#3C4D62" points="643.6,377 643.6,377 643.6,377 643.6,377 				"/>
				<path fill="#3C4D62" d="M257.8,154.3L129.4,80.1c0,0,0,0.1-0.1,0.1l128.4,74.2C257.8,154.3,257.8,154.3,257.8,154.3z"/>
				<path fill="#3C4D62" d="M515,302.7l-128.4-74.2c0,0,0,0.1-0.1,0.1l128.4,74.2C514.9,302.8,514.9,302.8,515,302.7z"/>
				<path fill="#3C4D62" d="M129.3,80L0.8,5.9c0,0,0,0.1-0.1,0.1l128.4,74.2C129.2,80.1,129.3,80.1,129.3,80z"/>
				<path fill="#3C4D62" d="M0.7,5.8l-16.5-9.5v0.2L0.6,5.9C0.7,5.9,0.7,5.9,0.7,5.8z"/>
				<path fill="#3C4D62" d="M643.4,377l-0.1-0.1l-128.3-74.1c0,0,0,0.1-0.1,0.1L643.3,377H643.4z"/>
				<path fill="#3C4D62" d="M386.4,228.5L258,154.3c0,0,0,0.1-0.1,0.1l128.5,74.2C386.4,228.6,386.4,228.5,386.4,228.5z"/>
				<path fill="#3C4D62" d="M0.7,5.8c0,0,0,0.1-0.1,0.1L0.8,6c0,0,0-0.1,0.1-0.1L0.7,5.8z"/>
				<path fill="#3C4D62" d="M129.4,80.1l-0.1-0.1c0,0,0,0.1-0.1,0.1l0.1,0.1C129.3,80.2,129.4,80.1,129.4,80.1z"/>
				<path fill="#3C4D62" d="M258,154.3l-0.1-0.1c0,0,0,0.1-0.1,0.1l0.1,0.1C257.9,154.4,257.9,154.4,258,154.3z"/>
				<path fill="#3C4D62" d="M386.5,228.6l-0.1-0.1c0,0,0,0.1-0.1,0.1l0.1,0.1C386.5,228.6,386.5,228.6,386.5,228.6z"/>
				<path fill="#3C4D62" d="M515.1,302.8l-0.1-0.1c0,0,0,0.1-0.1,0.1l0.1,0.1C515,302.9,515.1,302.8,515.1,302.8z"/>
				<polygon fill="#3C4D62" points="643.5,376.9 643.4,376.9 643.4,377 643.5,377 				"/>
				<polygon fill="#3C4D62" points="643.5,377 643.5,377 643.5,376.9 643.5,377 				"/>
				<polygon fill="#3C4D62" points="643.5,377 643.6,377 643.5,377 643.5,377 				"/>
				<polygon fill="#3C4D62" points="643.6,377 643.6,377 643.6,377 643.5,377 				"/>
				<polygon fill="#3C4D62" points="643.6,377 643.6,377 643.6,377 643.6,377 				"/>
				<path fill="#3C4D62" d="M198.3,377C198.3,377,198.3,377,198.3,377L50,377c0,0,0,0,0,0.1s0,0,0,0.1L198.3,377
					C198.3,377.1,198.3,377.1,198.3,377z"/>
				<path fill="#3C4D62" d="M49.9,377h-65.7v0.1h65.7C49.9,377.1,49.9,377.1,49.9,377C49.9,377,49.9,377,49.9,377z"/>
				<path fill="#3C4D62" d="M346.7,377C346.7,377,346.7,377,346.7,377L198.4,377c0,0,0,0,0,0.1s0,0,0,0.1L346.7,377
					C346.7,377.1,346.7,377.1,346.7,377z"/>
				<path fill="#3C4D62" d="M643.4,377l-0.1-0.1H495.2c0,0,0,0,0,0.1s0,0,0,0.1h148.1L643.4,377z"/>
				<path fill="#3C4D62" d="M495.1,377C495.1,377,495.1,377,495.1,377L346.8,377c0,0,0,0,0,0.1s0,0,0,0.1L495.1,377
					C495.1,377.1,495.1,377.1,495.1,377z"/>
				<path fill="#3C4D62" d="M50,377C50,377,50,377,50,377l-0.1-0.1c0,0,0,0,0,0.1s0,0,0,0.1L50,377C50,377.1,50,377.1,50,377z"/>
				<path fill="#3C4D62" d="M198.4,377C198.4,377,198.4,377,198.4,377l-0.1-0.1c0,0,0,0,0,0.1s0,0,0,0.1L198.4,377
					C198.4,377.1,198.4,377.1,198.4,377z"/>
				<path fill="#3C4D62" d="M346.8,377C346.8,377,346.8,377,346.8,377l-0.1-0.1c0,0,0,0,0,0.1s0,0,0,0.1L346.8,377
					C346.8,377.1,346.8,377.1,346.8,377z"/>
				<path fill="#3C4D62" d="M495.2,377C495.2,377,495.2,377,495.2,377l-0.1-0.1c0,0,0,0,0,0.1s0,0,0,0.1L495.2,377
					C495.2,377.1,495.2,377.1,495.2,377z"/>
				<polygon fill="#3C4D62" points="643.4,377 643.3,377 643.4,377 643.5,377 				"/>
				<polygon fill="#3C4D62" points="643.5,377 643.5,377 643.4,377 643.5,377 				"/>
				<polygon fill="#3C4D62" points="643.5,377 643.5,377 643.5,377 643.5,377 				"/>
				<polygon fill="#3C4D62" points="643.5,377 643.5,377 643.5,377 643.5,377 				"/>
				<polygon fill="#3C4D62" points="643.6,377 643.6,377 643.5,377 643.5,377 				"/>
				<path fill="#3C4D62" d="M257.8,599.7l-128.4,74.2c0,0,0,0.1,0.1,0.1l128.4-74.2C257.8,599.8,257.8,599.7,257.8,599.7z"/>
				<path fill="#3C4D62" d="M514.9,451.2l-128.4,74.2c0,0,0,0.1,0.1,0.1L515,451.4C514.9,451.3,514.9,451.3,514.9,451.2z"/>
				<path fill="#3C4D62" d="M0.6,748.2l-16.5,9.5v0.2l16.5-9.5C0.7,748.2,0.7,748.2,0.6,748.2z"/>
				<path fill="#3C4D62" d="M386.3,525.5l-128.5,74.2c0,0,0,0.1,0.1,0.1l128.5-74.2C386.4,525.5,386.4,525.5,386.3,525.5z"/>
				<path fill="#3C4D62" d="M129.2,673.9L0.8,748.1c0,0,0,0.1,0.1,0.1L129.3,674C129.3,674,129.2,674,129.2,673.9z"/>
				<path fill="#3C4D62" d="M643.4,377.1h-0.1L515,451.2c0,0,0,0.1,0.1,0.1l128.3-74.1L643.4,377.1z"/>
				<path fill="#3C4D62" d="M0.6,748.2c0,0,0,0.1,0.1,0.1l0.1-0.1c0,0,0-0.1-0.1-0.1L0.6,748.2z"/>
				<path fill="#3C4D62" d="M129.3,673.9l-0.1,0.1c0,0,0,0.1,0.1,0.1l0.1-0.1C129.4,673.9,129.3,673.9,129.3,673.9z"/>
				<path fill="#3C4D62" d="M257.9,599.6l-0.1,0.1c0,0,0,0.1,0.1,0.1l0.1-0.1C257.9,599.7,257.9,599.7,257.9,599.6z"/>
				<path fill="#3C4D62" d="M386.5,525.4l-0.1,0.1c0,0,0,0.1,0.1,0.1l0.1-0.1C386.5,525.5,386.5,525.4,386.5,525.4z"/>
				<path fill="#3C4D62" d="M515,451.2l-0.1,0.1c0,0,0,0.1,0.1,0.1l0.1-0.1C515.1,451.3,515,451.2,515,451.2z"/>
				<polygon fill="#3C4D62" points="643.4,377 643.3,377.1 643.4,377.1 643.5,377.1 				"/>
				<polygon fill="#3C4D62" points="643.5,377 643.5,377 643.4,377 643.5,377.1 				"/>
				<polygon fill="#3C4D62" points="643.5,377 643.5,377 643.5,377 643.5,377 				"/>
				<polygon fill="#3C4D62" points="643.5,377 643.5,377 643.5,377 643.5,377 				"/>
				<polygon fill="#3C4D62" points="643.5,377 643.5,377 643.5,377 643.6,377 				"/>
				<path fill="#3C4D62" d="M495,634.2l-74.2,128.5c0,0,0.1,0,0.1,0.1l74.2-128.5C495.1,634.2,495.1,634.2,495,634.2z"/>
				<path fill="#3C4D62" d="M569.2,505.6l-74.2,128.4c0,0,0.1,0,0.1,0.1l74.2-128.4C569.3,505.7,569.3,505.7,569.2,505.6z"/>
				<path fill="#3C4D62" d="M420.8,762.8l-17.9,31h0.2l17.9-31C420.9,762.8,420.8,762.8,420.8,762.8z"/>
				<path fill="#3C4D62" d="M643.5,377.2l-0.1,0.1l-74.1,128.3c0,0,0.1,0,0.1,0.1l74.1-128.3V377.2z"/>
				<path fill="#3C4D62" d="M421,762.7c0,0-0.1,0-0.1-0.1l-0.1,0.1c0,0,0.1,0,0.1,0.1L421,762.7z"/>
				<path fill="#3C4D62" d="M495.1,634.1l-0.1,0.1c0,0,0.1,0,0.1,0.1l0.1-0.1C495.2,634.1,495.1,634.1,495.1,634.1z"/>
				<path fill="#3C4D62" d="M569.3,505.5l-0.1,0.1c0,0,0.1,0,0.1,0.1l0.1-0.1C569.4,505.6,569.3,505.5,569.3,505.5z"/>
				<polygon fill="#3C4D62" points="643.5,377.2 643.5,377.3 643.6,377.2 643.5,377.1 				"/>
				<polygon fill="#3C4D62" points="643.6,377.1 643.5,377.1 643.6,377.2 643.6,377.1 				"/>
				<polygon fill="#3C4D62" points="643.6,377.1 643.6,377.1 643.6,377.1 643.6,377.1 				"/>
				<polygon fill="#3C4D62" points="643.6,377.1 643.6,377.1 643.6,377.1 643.6,377.1 				"/>
				<polygon fill="#3C4D62" points="643.6,377.1 643.6,377.1 643.6,377.1 643.6,377 				"/>
				<polygon fill="#3C4D62" points="643.4,377.1 643.4,377.2 643.5,377.2 643.5,377.1 				"/>
				<polygon fill="#3C4D62" points="643.5,377.1 643.5,377.1 643.5,377.2 643.5,377.1 				"/>
				<polygon fill="#3C4D62" points="643.5,377.1 643.5,377.1 643.6,377.1 643.5,377.1 				"/>
				<polygon fill="#3C4D62" points="643.6,377.1 643.5,377.1 643.6,377.1 643.6,377.1 				"/>
				<polygon fill="#3C4D62" points="643.6,377.1 643.6,377.1 643.6,377.1 643.6,377 				"/>
				<polygon fill="#3C4D62" points="643.5,377.1 643.5,377.1 643.4,377.1 643.5,377.1 				"/>
				<polygon fill="#3C4D62" points="643.5,377.1 643.5,377.1 643.5,377.1 643.5,377.1 				"/>
				<polygon fill="#3C4D62" points="643.5,377.1 643.5,377.1 643.5,377.1 643.5,377.1 				"/>
				<polygon fill="#3C4D62" points="643.5,377.1 643.5,377.1 643.6,377.1 643.6,377 				"/>
				<polygon fill="#3C4D62" points="643.5,377 643.5,377.1 643.5,377.1 643.5,377.1 				"/>
				<polygon fill="#3C4D62" points="643.5,377.1 643.5,377.1 643.5,377.1 643.5,377.1 				"/>
				<polygon fill="#3C4D62" points="643.5,377.1 643.5,377.1 643.5,377.1 643.6,377 				"/>
				<polygon fill="#3C4D62" points="643.5,377 643.5,377 643.5,377 643.5,377.1 				"/>
				<polygon fill="#3C4D62" points="643.5,377 643.5,377.1 643.5,377.1 643.6,377 				"/>
				<polygon fill="#3C4D62" points="643.5,377 643.5,377 643.5,377 643.6,377 				"/>
			</g>
		</g>
	</g>
</g>
</svg>
